<svg xmlns="http://www.w3.org/2000/svg" viewBox="0 0 1024 1024">
  <defs>
    <linearGradient id="linear-gradient" x1="511.67" y1="1035.9" x2="512.31" y2="11.26" gradientUnits="userSpaceOnUse">
      <stop offset="0" stop-color="#f4e06b"/>
      <stop offset=".45" stop-color="#fe7a63"/>
      <stop offset=".49" stop-color="#f77363"/>
      <stop offset="1" stop-color="#9a1860"/>
    </linearGradient>
    <style>
      .cls-3{fill:#490a2a}.cls-4{fill:#631544}.cls-5{fill:#540f35}.cls-6{fill:#771743}.cls-7{fill:#ad275a}.cls-8{fill:#cc2f76}.cls-9{fill:#ef656c}.cls-10{fill:#bf3246}.cls-11{fill:#e84656}.cls-12{fill:gray}.cls-13{fill:#666}.cls-15{fill:#ba475a}.cls-16{fill:#cc6256}.cls-17{fill:#e8646e}.cls-18{fill:#ef899a}.cls-19{fill:#e57765}.cls-20{fill:#ea7886}.cls-21{fill:#e05555}.cls-22{fill:#333}.cls-23{fill:#9b9b9b}.cls-25{fill:#4d4d4d}.cls-29{fill:none}.cls-30{fill:#999}.cls-32{fill:#b7b7b7}.cls-33{fill:#7f7f7f}.cls-34{fill:#686868}.cls-35{opacity:.5}
    </style>
  </defs>
  <path fill="url(#linear-gradient)" d="M0 0h1024v1024H0z" id="Background1"/>
  <path fill="#2d061b" d="M1024 1024H0V549.74l63.39-65.68 69.36 62.7 194.81-180.57 192.09 192.09 178.55-95.12 217.31 173.83L1024 567.14V1024" id="Background2"/>
  <g id="Background3">
    <path class="cls-3" d="M132.75 679.25l-.36 2.92q-8-1.27-16.07-2.53c-5.2-.81-10.44-2.35-15.61-2.15a9.78 9.78 0 00-3 .52c-2.29.84-3.36 2.81-1 6.81.08.14.17.29.27.44a25.77 25.77 0 013.33 9.14 35.75 35.75 0 01.58 5.93v2.68c.06 4.18.14 6.56.93 8.44a7.22 7.22 0 00.85 1.5 17 17 0 003.31 3.16c.82.65 1.79 1.36 2.91 2.19H76.42a26.44 26.44 0 008-7.72 23.74 23.74 0 003.33-7.34c.12-.49.23-1 .32-1.46a19.15 19.15 0 00.23-5.06c-.76-8.21-8.84-8.19-13.52-12.06a36.64 36.64 0 01-6-6.66c-1.52-2-3-4.17-4.5-6.19-2.58-3.38-4.58-9.29-7.53-9.76-3.66-.58-8.11 3.14-12.05 5.3-1.93 1.06-3.49 2.79-5.22 4.22l-.63-1.1q4.52-8.21 9-16.42l-.29-.24.65-.9 20.26 8.82 1.46.63c3.65-3.17 8.11-6.61 12.05-10.56s4.42-8.43.12-12.57c-4-3.82-7.29-4.47-13.17-1.42a46.74 46.74 0 01-7.79 3.12c-6.13 1.91-12.69 3-19 4.57-.85.22-2.07-1.07-4.28-2.32 10.91 1.16 14.87-1.36 14.06-7.86 9.3 4.76 10.87 5.1 14.39-.41.37-.56.74-1.17 1.15-1.85l-2.19-.83-7.49-2.8 6.65.66 12.28 1.23c-3-14.72-4-28.08 5.89-39.71l1.2 12.89h8.76c-1.53 1.45-3.3 2.57-4.95 2.42-5-.45-8.16 1.9-7.48 6.48.63 4.27 2.21 10.19 5.3 11.91 6.26 3.49 13.83 4.62 20.86 6.73l-.48 2.22-18.37-3.7c-.44.73-.88 1.45-1.31 2.18l17.58 16.18-.88 1.21-6.66-3c-4 4.66-7 9.42-11.19 12.9-12.23 10.28-12.22 11.74 2.15 19a7.22 7.22 0 002 .23l2.69-5.16c.14-.28.28-.54.41-.79h28.49l-5.09 1.86 1.45 2z"/>
    <path class="cls-3" d="M989.75 860.21c0 .75.06 1.5.1 2.24.18 3.26 0 6-4.37 5.79-4.12-.22-4.46-2.61-4.18-6.06l.15-2H846a25.47 25.47 0 003.16 2.55h-19.28a15.73 15.73 0 003.11-2.55 13.54 13.54 0 003.93-10.27c-.45-4.87-5.25-4.86-8-7.15-2.48-2.06-4.22-5-6.22-7.63-1.53-2-2.72-5.52-4.47-5.8-2.17-.34-4.81 1.87-7.15 3.15A20.33 20.33 0 00808 835l-.38-.65q2.68-4.87 5.35-9.75l-.17-.14.38-.53 12.9 5.61c2.17-1.88 4.82-3.92 7.16-6.27s2.62-5 .07-7.46c-2.36-2.27-4.33-2.66-7.82-.85-4.8 2.49-10.53 3.22-15.88 4.57-.51.13-1.24-.64-2.55-1.38 6.48.69 8.84-.8 8.35-4.66 6.08 3.1 6.6 3 9.23-1.35l-5.79-2.14 11.24 1.12a45 45 0 01-1.15-11.76q-4.17-2.08-8.35-4.05l.39 7.1h-9.73v-11.34c-5.17-2.24-10.35-4.3-15.53-6.1l-19 1.46c7.53 4.23 18.22-2.58 24.59 8.39h-21.95c-3.71 3 .47 10.48-7.13 10.79-.51-4.29-.89-7.43-1.36-11.45h-19.49l.44.3-14.24 2.15 16 10.09c-9.64 1.21-17.12 1.42-24.13 3.33-3.21.88-8.46 2-7.5 8.59 1.1 7.45.73 15.1 1.15 22.66.23 4 0 7.42-5.38 7.14-5.08-.27-5.49-3.22-5.15-7.47.76-9.61 1-19.25 1.51-28.29l-31.94-6.49 15.3-10.33-16.73-1.28 17-9.83c-1-3.61-1.51-5.57-2.15-8l-5.16-1 3.34-4.45c-10.07-.8-20.59-1.61-31.31-2.47.51 9.45 1 18.6 1.52 27.88h-11.24v-28.61c-10.14-.82-20.4-1.68-30.6-2.57l8.54 5.37c-5.3.66-9.42.77-13.28 1.83-1.76.48-4.65 1.12-4.12 4.72.61 4.1.4 8.31.63 12.46.13 2.22 0 4.08-3 3.93-2.79-.15-3-1.77-2.83-4.11.42-5.28.58-10.59.83-15.56l-17.56-3.56 8.42-5.69-9.21-.7 2.44-1.41c-10.72-1.07-21.16-2.18-31.09-3.36 9.57 4.7 17.82 8.77 25.88 12.74-7.53 2.3-15.32 7.55-20.63 5.69-10.59-3.7-18.43-1-23.13 2.77-4.82-2-7.06-3.65-9.29-3.65-6.93 0-13.86.66-20.79 1-.05-.7-.11-1.4-.16-2.1 6.29-1.43 12.53-3.13 18.88-4.2 5.33-.9 7.86-2.59 8.33-9a46.75 46.75 0 01.87-5.94c-16.59-2.32-30.93-4.88-41.6-7.71l-1.85-.48a4.85 4.85 0 000 1.76c.6 4.09.4 8.3.63 12.46.12 2.21 0 4.08-3 3.92-2.79-.14-3-1.76-2.84-4.1.41-5.15.58-10.32.82-15.17-3-.75-6.21-1.53-9.6-2.34l-7.95-1.62.25-.17c-4.41-1-9.05-2.06-13.89-3.12l-1.65 1.9 21.18 10.44c-6.1 1.86-12.41 6.11-16.71 4.6-8.56-3-14.91-.82-18.72 2.25-3.9-1.6-5.71-3-7.52-3h-1c.14.22.28.44.41.67h-13.48l-2.7.17v-.17h-6.15c-3.81 3 .48 10.73-7.31 11.06-.52-4.4-.9-7.62-1.4-11.73h-21.84c.21-14.39 10.55-14.53 19.85-16.27l-16.13-1.37c1.21-5 2.35-9.71 5.11-12.7L383.59 724c.05 2.53.09 5 .23 7.56.21 3.62.05 6.68-4.84 6.42-4.57-.24-4.94-2.89-4.64-6.72.24-3 .43-6 .59-9-16.48-3.21-32.17-6.2-45.65-8.74a20.92 20.92 0 01-1.92 1.85c-8.05 6.77-8 7.73 1.42 12.53a4.52 4.52 0 001.33.16c.73-1.4 1.5-2.87 2-3.92h18.76l-3.35 1.22 1 1.3 10.26 1.34-.24 1.91-10.54-1.63c-3.43-.53-6.88-1.55-10.28-1.41-2.69.1-4.89 1.24-2.43 5.12a19.82 19.82 0 012.57 9.92c.12 7.81-.17 7.81 5.3 11.83h-21.48c5.16-3.22 8.3-9 7.82-14.21s-5.83-5.39-8.9-7.94c-2.75-2.28-4.69-5.56-6.9-8.46-1.7-2.23-3-6.12-5-6.43-2.41-.38-5.34 2.07-7.93 3.49a23.59 23.59 0 00-3.44 2.77l-.41-.71 5.93-10.82-.19-.16.42-.59 14.31 6.23c1.64-1.43 3.53-2.93 5.39-4.58-11.37-2.14-20.8-3.88-27.28-5.07l.31.72h-15.88c-2.16.86-4.84 1.9-7.94 3 8.87-.57 17.68-.58 25.75 4.44-.22 1.07-.44 2.13-.67 3.2h-49.19a184.43 184.43 0 01-26.69 5.2c-4.52 1.89-8.84 4-12 2.85-.78-.27-1.53-.5-2.27-.69a11.41 11.41 0 003.71 1.42l-5.96 7.6 11.73 8.09-10.88 1.65c4.4 2.76 7.49 4.71 12.23 7.7-7.36.92-13.07 1.08-18.43 2.54-2.45.67-6.46 1.56-5.72 6.56.84 5.69.56 11.53.88 17.3.17 3.08 0 5.66-4.11 5.45-3.87-.2-4.19-2.45-3.93-5.7.58-7.34.8-14.7 1.15-21.6l-24.38-4.95 11.68-7.89-12.78-1 13-7.5c-.75-2.76-1.15-4.26-1.64-6.08l-3.94-.75 1.79-2.39c-1.75.12-3.51.24-5.26.34 0-.57-.09-1.13-.14-1.7 2.61-.59 5.21-1.24 7.81-1.85.33-.45.67-.89 1-1.34-6.59-.71-13.68-1.55-21.11-2.46-1.62 2.42.44 6.91-4.55 7.12-.35-2.92-.61-5.11-.93-7.79l-3.65-.46h-7.28c1.23 2.53 2.48 5.08 3.75 7.68l-6.14.91c6.16.08 6.87 4.67 8.29 9.23l-8.54.92c7-.69 10.57 2.71 11.62 9.71l-16.85 1.3c8.33 2.35 18.85-2.19 19.9 10.69L133.68 760c5.42 3 13.11-1.86 17.7 6H135.6c-2.67 2.13.34 7.54-5.13 7.77-.37-3.1-.64-5.36-1-8.25h-15.34c.14-10.11 7.42-10.22 14-11.44l-11.34-1c1.5-6.24 2.86-11.81 10.67-11.19l-9-.81c-.19-.49-.38-1-.56-1.49l9-8.6-5.66-.66 7.06-9.39-2.06-.56c.6-1.42 1.2-2.82 1.78-4.2l-20.46-2.67c-.37.69-.77 1.35-1.16 2-.11.18-.23.36-.35.54.82.65 1.79 1.36 2.91 2.19h-4.56c-1.31 1.55-2.83 3.11-4.44 5l11.92 5.87c-3.43 1-7 3.43-9.4 2.59-4.82-1.69-8.39-.47-10.52 1.26-2.2-.9-3.22-1.67-4.24-1.66-3.15 0-6.3.29-9.46.47 0-.32-.05-.64-.07-1 2.86-.65 5.7-1.43 8.59-1.92 2.43-.41 3.58-1.17 3.79-4.07a62.52 62.52 0 011.22-6.59H76.42a26.44 26.44 0 008-7.72C74 709.27 63.9 708 54.35 706.91c.35 6.45.7 12.8 1.06 19.23H44.46V705.8c-19-2.07-34.87-3.34-44.46-3V1024h1024V860.21zM253.12 721.14c12-.46 24 .21 35.92-.11 5.65-.15 9.51 1.48 12 7.66-7.41 0-14.2.45-20.89-.14-6.34-.55-8.54 1.68-7.87 7.84.39 3.54.07 7.16.07 12.54-10.42-5.11-2.78-14.68-8.48-20.66h-20.45l-.87-3c3.52-1.48 7-3.99 10.57-4.13z"/>
    <path class="cls-3" d="M54.35 706.91c.35 6.45.7 12.8 1.06 19.23H44.46V705.8c3.21.34 6.54.72 9.89 1.11zM100 723.3l11.92 5.87c-3.43 1-7 3.43-9.4 2.59-4.82-1.69-8.39-.47-10.52 1.26-2.2-.9-3.22-1.67-4.24-1.66-3.15 0-6.3.29-9.46.47 0-.32-.05-.64-.07-1 2.86-.65 5.7-1.43 8.59-1.92 2.43-.41 3.58-1.17 3.79-4.07a62.52 62.52 0 011.22-6.59H76.42a26.44 26.44 0 008-7.72l7 .9 4.54.59 5.09.66 1.75.22 4.82.63c-.37.69-.77 1.35-1.16 2-.11.18-.23.36-.35.54.82.65 1.79 1.36 2.91 2.19h-4.62c-1.31 1.59-2.83 3.15-4.4 5.04zM151.38 766H135.6c-2.67 2.13.34 7.54-5.13 7.77-.37-3.1-.64-5.36-1-8.25h-15.34c.14-10.11 7.42-10.22 14-11.44l-11.34-1c1.5-6.24 2.86-11.81 10.67-11.19l-9-.81c-.19-.49-.38-1-.56-1.49l9-8.6-5.66-.66 7.06-9.39-2.06-.56c.6-1.42 1.2-2.82 1.78-4.2l4.8.61 3.92.51 7.76 1h-7.28c1.23 2.53 2.48 5.08 3.75 7.68l-6.14.91c6.16.08 6.87 4.67 8.29 9.23l-8.54.92c7-.69 10.57 2.71 11.62 9.71l-16.85 1.3c8.33 2.35 18.85-2.19 19.9 10.69L133.68 760c5.42 3 13.11-1.87 17.7 6zM148.16 718.81l5.48.67c-1.62 2.42.44 6.91-4.55 7.12-.35-2.92-.61-5.11-.93-7.79zM209.15 726.7c-.78-.27-1.53-.5-2.27-.69a11.41 11.41 0 003.71 1.42l-5.92 7.57 11.73 8.09-10.88 1.65c4.4 2.76 7.49 4.71 12.23 7.7-7.36.92-13.07 1.08-18.43 2.54-2.45.67-6.46 1.56-5.72 6.56.84 5.69.56 11.53.88 17.3.17 3.08 0 5.66-4.11 5.45-3.87-.2-4.19-2.45-3.93-5.7.58-7.34.8-14.7 1.15-21.6l-24.38-4.95 11.68-7.89-12.78-1 13-7.5c-.75-2.76-1.15-4.26-1.64-6.08l-3.94-.75 1.79-2.39c-1.75.12-3.51.24-5.26.34 0-.57-.09-1.13-.14-1.7 2.61-.59 5.21-1.24 7.81-1.85.33-.45.67-.89 1-1.34l3.42.37c10.67 1.12 19.88 1.9 26.87 2.16 2.69.1 5 .12 7 0 3-.1 6.05-.33 9.12-.67-4.47 2-8.79 4.08-11.99 2.96zM301 728.69c-7.41 0-14.2.45-20.89-.14-6.34-.55-8.54 1.68-7.87 7.84.39 3.54.07 7.16.07 12.54-10.42-5.11-2.78-14.68-8.48-20.66h-20.41l-.87-3c3.52-1.43 7-3.94 10.57-4.08 12-.46 24 .21 35.92-.11 5.65-.2 9.51 1.43 11.96 7.61zM295.85 708h-15.92c3.79-1.51 6-2.49 6-2.49s3.5.63 9.63 1.77zM297.07 718.65h-49.19c9.18-2.44 17.56-5.24 24.11-7.64 8.87-.57 17.68-.58 25.75 4.44-.22 1.07-.44 2.13-.67 3.2z"/>
    <path class="cls-3" d="M348.52 726.68l10.26 1.32-.24 1.91-10.54-1.63c-3.43-.53-6.88-1.55-10.28-1.41-2.69.1-4.89 1.24-2.43 5.12a19.82 19.82 0 012.57 9.92c.12 7.81-.17 7.81 5.3 11.83h-21.48c5.16-3.22 8.3-9 7.82-14.21s-5.83-5.39-8.9-7.94c-2.75-2.28-4.69-5.56-6.9-8.46-1.7-2.23-3-6.12-5-6.43-2.41-.38-5.34 2.07-7.93 3.49a23.59 23.59 0 00-3.44 2.77l-.41-.71 5.93-10.82-.19-.16.42-.59 14.31 6.23c1.64-1.43 3.53-2.93 5.39-4.58l6.46 1.21a20.92 20.92 0 01-1.92 1.85c-8.05 6.77-8 7.73 1.42 12.53a4.52 4.52 0 001.33.16c.73-1.4 1.5-2.87 2-3.92h18.76l-3.35 1.22zM383.82 731.54c.21 3.62.05 6.68-4.84 6.42-4.57-.24-4.94-2.89-4.64-6.72.24-3 .43-6 .59-9l8.66 1.7c.05 2.57.09 5.06.23 7.6zM461.21 742.17l21.18 10.44c-6.1 1.86-12.41 6.11-16.71 4.6-8.56-3-14.91-.82-18.72 2.25-3.9-1.6-5.71-3-7.52-3h-1c.14.22.28.44.41.67h-13.53l-2.7.17v-.17h-6.15c-3.81 3 .48 10.73-7.31 11.06-.52-4.4-.9-7.62-1.4-11.73h-21.84c.21-14.39 10.55-14.53 19.85-16.27l-16.13-1.37c1.21-5 2.35-9.71 5.11-12.7 7.8 1.55 15.66 3.12 23.42 4.7 9.49 1.93 18.85 3.86 27.81 5.76 5.82 1.23 11.47 2.45 16.88 3.64zM476.75 743.39l7.7 1.79-7.95-1.62zM499 762.87c.12 2.21 0 4.08-3 3.92-2.79-.14-3-1.76-2.84-4.1.41-5.15.58-10.32.82-15.17 1.52.38 3 .76 4.38 1.13a4.85 4.85 0 000 1.76c.64 4.09.44 8.3.64 12.46zM561.92 759.43c9.57 4.7 17.82 8.77 25.88 12.74-7.53 2.3-15.32 7.55-20.63 5.69-10.59-3.7-18.43-1-23.13 2.77-4.82-2-7.06-3.65-9.29-3.65-6.93 0-13.86.66-20.79 1-.05-.7-.11-1.4-.16-2.1 6.29-1.43 12.53-3.13 18.88-4.2 5.33-.9 7.86-2.59 8.33-9a46.75 46.75 0 01.87-5.94c6.37 1 13.12 1.86 20.04 2.69zM622.11 765.51l8.54 5.37c-5.3.66-9.42.77-13.28 1.83-1.76.48-4.65 1.12-4.12 4.72.61 4.1.4 8.31.63 12.46.13 2.22 0 4.08-3 3.93-2.79-.15-3-1.77-2.83-4.11.42-5.28.58-10.59.83-15.56l-17.56-3.56 8.42-5.69-9.21-.7 2.44-1.41c9.57.94 19.33 1.85 29.14 2.72zM662.47 768.87c.51 9.45 1 18.6 1.52 27.88h-11.28v-28.67zM801.28 794.82h-21.92c-3.71 3 .47 10.48-7.13 10.79-.51-4.29-.89-7.43-1.36-11.45h-19.49l.44.3-14.24 2.15 16 10.09c-9.64 1.21-17.12 1.42-24.13 3.33-3.21.88-8.46 2-7.5 8.59 1.1 7.45.73 15.1 1.15 22.66.23 4 0 7.42-5.38 7.14-5.08-.27-5.49-3.22-5.15-7.47.76-9.61 1-19.25 1.51-28.29l-31.94-6.49 15.3-10.33-16.73-1.28 17-9.83c-1-3.61-1.51-5.57-2.15-8l-5.16-1 3.34-4.45c18.33 1.43 35.2 2.76 49.26 4 3.62.33 7.05.66 10.27 1 5.23.53 9.9 1 13.92 1.56a140.32 140.32 0 0128.49 7l-19 1.46c7.54 4.36 18.23-2.45 24.6 8.52zM821 802.41h-9.73v-11.34q4.68 2 9.34 4.24zM989.85 862.45c.18 3.26 0 6-4.37 5.79-4.12-.22-4.46-2.61-4.18-6.06l.15-2H846a25.47 25.47 0 003.16 2.55h-19.28a15.73 15.73 0 003.11-2.55 13.54 13.54 0 003.93-10.27c-.45-4.87-5.25-4.86-8-7.15-2.48-2.06-4.22-5-6.22-7.63-1.53-2-2.72-5.52-4.47-5.8-2.17-.34-4.81 1.87-7.15 3.15A20.33 20.33 0 00808 835l-.38-.65q2.68-4.87 5.35-9.75l-.17-.14.38-.53 12.9 5.61c2.17-1.88 4.82-3.92 7.16-6.27s2.62-5 .07-7.46c-2.36-2.27-4.33-2.66-7.82-.85-4.8 2.49-10.53 3.22-15.88 4.57-.51.13-1.24-.64-2.55-1.38 6.48.69 8.84-.8 8.35-4.66 6.08 3.1 6.6 3 9.23-1.35l-5.79-2.14 11.24 1.12a45 45 0 01-1.15-11.76l3.27 1.64c6.46 3.27 12.87 6.67 19.21 10.07 7 3.73 13.86 7.45 20.63 11a296.51 296.51 0 0032.3 14.87 129.09 129.09 0 0012.52 4c8.91 2.33 18.59 4.5 28.36 6.49 12.52 2.55 25.19 4.79 36.6 6.65 2.68.44 5.29.86 7.81 1.25 19.91 3.13 34.36 4.91 34.36 4.91h-34.25c.03.76.06 1.47.1 2.21z"/>
    <path class="cls-4" d="M630.65 770.88c-5.3.66-9.42.77-13.28 1.83-1.76.48-4.65 1.12-4.12 4.72.61 4.1.4 8.31.63 12.46.13 2.22 0 4.08-3 3.93-2.79-.15-3-1.77-2.83-4.11.42-5.28.58-10.59.83-15.56l-17.56-3.56 8.42-5.69-9.21-.7 2.44-1.41 6.93-4c-.54-2-.83-3.07-1.18-4.38l-2.84-.54 8.47-11.29-4.19-.92 6.08-4.74-3.6-.57c2.19-8.23 4.37-16.4 6.54-24.57h2.11c2.31 8.27 4.62 16.53 7 24.88l-3.41.46c6.45 4.13 1.91 13.91 10.61 15.76l-4.26 5.48 8.44 5.82-7.83 1.19.27.18zM515.79 743.85c-5.3.66-9.42.78-13.27 1.83-1.43.4-3.6.89-4.09 3a4.85 4.85 0 000 1.76c.6 4.09.4 8.3.63 12.46.12 2.21 0 4.08-3 3.92-2.79-.14-3-1.76-2.84-4.1.41-5.15.58-10.32.82-15.17v-.39l-9.62-2-7.95-1.62.25-.17 8.17-5.51-9.2-.71 9.36-5.4-1.18-4.37-2.84-.55 8.47-11.29-4.19-.91 6.08-4.74-3.6-.57c1.15-4.32 2.29-8.61 3.44-12.9.29-1.09.57-2.17.86-3.25l2.25-8.42 2.1-.06 2.48 8.87.75 2.67 3.73 13.35-3.41.46c6.45 4.12 1.91 13.91 10.61 15.75l-4.26 5.48 8.45 5.83-7.79 1.2z"/>
    <path class="cls-5" d="M753.59 806.7c-9.64 1.21-17.12 1.42-24.13 3.33-3.21.88-8.46 2-7.5 8.59 1.1 7.45.73 15.1 1.15 22.66.23 4 0 7.42-5.38 7.14-5.08-.27-5.49-3.22-5.15-7.47.76-9.61 1-19.25 1.51-28.29l-31.94-6.49 15.3-10.33-16.73-1.28 17-9.83c-1-3.61-1.51-5.57-2.15-8l-5.16-1 3.34-4.45 12.07-16.08-7.62-1.66 11.09-8.54-6.56-1c4-15 7.95-29.83 11.9-44.68l3.83-.1c4.21 15 8.41 30.07 12.66 45.26l-6.2.83c11.73 7.5 3.48 25.3 19.29 28.64l-1.17 1.5-6.58 8.47c4.18 2.88 8.45 5.82 13.13 9.06l1.79 1.24.44.3-14.24 2.15zM1014.59 834.38c-7.83 1-13.9 1.15-19.59 2.7-2.61.72-6.87 1.66-6.09 7a89.55 89.55 0 01.73 11.25c0 1.63.05 3.28.11 4.91 0 .75.06 1.5.1 2.24.18 3.26 0 6-4.37 5.79-4.12-.22-4.46-2.61-4.18-6.06l.15-2c.15-2.06.27-4.11.38-6.16.27-5.06.45-10 .69-14.83L956.6 834l12.4-8.43-13.58-1.05 13.82-8-1.74-6.46-4.19-.8 12.5-16.67-6.18-1.34 9-7-5.31-.84c3.23-12.15 6.44-24.21 9.66-36.27l3.1-.07c3.42 12.2 6.83 24.4 10.28 36.73l-5 .67c9.52 6.09 2.82 20.53 15.66 23.25l-6.29 8.09 12.47 8.6-11.56 1.75z"/>
    <path class="cls-3" d="M801.28 794.82h-21.92c-3.71 3 .47 10.48-7.13 10.79-.51-4.29-.89-7.43-1.36-11.45h-21.33c0-.42 0-.84.05-1.24.76-12.82 10.53-13 19.34-14.65l-15.76-1.33c.05-.19.09-.38.14-.57 2-8.44 4.08-15.82 14.69-15l-12.45-1.12-.78-2.07 12.52-12-7.85-.91c3.81-5.09 6.91-9.21 9.79-13.05l-2.86-.78c2.66-6.25 5.23-12.27 7.75-18.21l12.72 26-8.54 1.26c8.56.11 9.54 6.49 11.52 12.82L778 754.63c9.76-1 14.68 3.76 16.14 13.48l-23.41 1.81c11.58 3.27 26.19-3 27.64 14.85l-2.61.2-19 1.46c7.46 4.23 18.15-2.58 24.52 8.39z"/>
    <path class="cls-4" d="M170 718.83h-15.77a2.58 2.58 0 00-.59.65c-1.62 2.42.44 6.91-4.55 7.12-.35-2.92-.61-5.11-.93-7.79v-.46h-15.41c0-.52 0-1 .08-1.49a10.73 10.73 0 011.39-4.64c2.48-4.11 7.69-4.41 12.49-5.31l-11.34-1c1.51-6.24 2.87-11.81 10.68-11.19l-9-.8c-.18-.5-.37-1-.56-1.5l9-8.6-5.65-.66 7.05-9.39-2.05-.56 5.57-13.11 9.16 18.7-6.15.9c6.16.08 6.87 4.68 8.3 9.23l-8.54.92c7-.69 10.57 2.71 11.62 9.71L148 700.9c8.34 2.36 18.86-2.19 19.91 10.69l-15.59 1.2c5.41 3.04 13.1-1.86 17.68 6.04z"/>
    <path class="cls-3" d="M918.1 826.07l21.62-1.67c-1.35-9-5.9-13.34-14.9-12.45l10.95-1.18c-1.83-5.84-2.74-11.73-10.64-11.83l7.88-1.16c-4-8.17-7.82-16-11.73-24-2.34 5.48-4.7 11-7.16 16.81l2.64.72-9 12 7.25.85-11.56 11 .72 1.91 11.49 1c-10-.8-11.76 6.34-13.68 14.35l14.54 1.23c-8.38 1.56-17.71 1.7-17.9 14.67h19.69c.44 3.71.78 6.6 1.26 10.57 7-.29 3.15-7.22 6.58-10h20.23c-5.88-10.13-15.74-3.84-22.7-7.75l20-1.54c-1.39-16.34-14.89-10.51-25.58-13.53z"/>
    <path class="cls-4" d="M662.47 768.87c.51 9.45 1 18.6 1.52 27.88h-11.28V755l-17-1.23c2.15-7.1 4.08-13.49 6.1-20.15l-6-2c3.15-8.11 6.23-16.06 9.43-24.31l-7.52-1c3.33-7.65 6.36-14.59 9.49-21.77l-6.69-1.67 9.53-18.87-5.63-2c3-5.67 5.76-11 8.65-16.54l-5.48-1.57c3.42-5.78 6.65-11.21 10.33-17.43 1.77 3.1 3.5 5.14 4.16 7.49 2.58 9.22 4.82 18.53 7.33 28.35l-4.41 1.57 9.26 19.22-6 1.69 8.38 21.42-7.32 1.17c2.59 6.8 4.94 12.78 7.12 18.82.62 1.71 1.33 5.07 1 5.19-8.73 3.47-1.52 8.09-.78 12 .63 3.37 2.33 6.53 3.78 10.36l-18.73 1.49c.29 4.62.52 9.16.76 13.64zM820.59 795.31l.39 7.1h-9.73v-36l-14.62-1.06c1.85-6.13 3.52-11.64 5.26-17.38l-5.14-1.73 8.13-21-6.48-.88c2.87-6.59 5.48-12.59 8.18-18.77l-5.77-1.45 8.19-16.26-4.86-1.76 7.47-14.26-4.74-1.36 8.92-15c1.52 2.68 3 4.44 3.58 6.46 2.23 8 4.16 16 6.32 24.46l-3.78 1.41 8 16.59-5.19 1.45c2.45 6.28 4.75 12.16 7.22 18.47l-6.31 1c2.23 5.86 4.26 11 6.14 16.24.53 1.47 1.14 4.36.87 4.47-7.53 3-1.31 7-.68 10.31a31.36 31.36 0 002.16 6.22c.21.5.43 1 .64 1.54s.31.78.46 1.18L819 766.56c.56 9.99 1.08 19.37 1.59 28.75z"/>
    <path class="cls-5" d="M54.35 706.91c.35 6.45.7 12.8 1.06 19.23H44.46v-40.51L28 684.44c2.08-6.9 4-13.1 5.92-19.56l-5.79-1.94c3.06-7.87 6.05-15.59 9.16-23.6l-7.3-1 9.2-21.12-6.48-1.63c3.23-6.47 6.14-12.29 9.16-18.35l-5.46-2c2.88-5.5 5.59-10.67 8.4-16l-5.32-1.53 10-16.92c1.71 3 3.39 5 4 7.28 2.51 9 4.68 18 7.11 27.52l-4.25 1.6c3 6.28 6 12.41 9 18.66l-5.84 1.63 4.99 12.62.84 2.14c.34.89.69 1.78 1 2.68l1.3 3.32-7.1 1.14c.2.52.4 1 .59 1.56 2.29 6 4.38 11.31 6.32 16.71a24.31 24.31 0 011 4.08c.07.54.07.91 0 1-8.47 3.37-1.47 7.85-.76 11.6A23.34 23.34 0 0068.8 678c.75 2 1.72 4.06 2.58 6.35l-18.18 1.44c.4 7.27.8 14.21 1.15 21.12zM624.36 699.39a46.39 46.39 0 01-18.72 3.2c-17.51-.31-21.53 4.07-22.59 21.61-.38 6.19-3.88 12.6-7.26 18.11-3.51 5.71-8.61 10.45-14.16 17l.29.15c9.57 4.7 17.82 8.77 25.88 12.74-7.53 2.3-15.32 7.55-20.63 5.69-10.59-3.7-18.43-1-23.13 2.77-4.82-2-7.06-3.65-9.29-3.65-6.93 0-13.86.66-20.79 1-.05-.7-.11-1.4-.16-2.1 6.29-1.43 12.53-3.13 18.88-4.2 5.33-.9 7.86-2.59 8.33-9a46.75 46.75 0 01.87-5.94c2-10 5.79-20-3.16-29.39 4.43-10.76-2.74-12.72-10.62-13.49-10.72-1-16-8.13-14-20.35.24 12.7 9.37 15.23 18.89 17.65 2.82.72 6.28 2 7.79 4.23 5.34 7.74 10 16 15.28 24.73 8.37-1 12.22-9.58 12.62-17.3.24-4.62-7-9.6-10.75-14.47C553 702 544.86 696 543.59 688.9c-3.41-19.24-5.34-21.95-24.68-19.54-.6.07-1.27-.42-2.52-.88 11.61-6.42 21.61-4.39 30.82 5.52-.29-21.51-2-25.11-13.41-29.39l8.8-2q4.35 8.05 8.5 15.77c2.23-7.5 4.29-14.43 6.34-21.37l2.35.12c-1.37 10-2.74 20-3.88 28.42l22-1.78c-9.9 3.3-22 3-25.25 15.59-3.35 12.78 10 13.95 16.61 22.42-.5-5.23-.79-8.18-1.08-11.14l1.59-.22 5.25 17.81 2.28-.41v-18.6l1.53-.2c1.23 4.58 2.45 9.15 4.07 15.18l14.9-11.67c-.17 2-.34 4.06-.52 6.09 4.78.27 9.29.61 13.81.74s8.9.03 13.26.03z"/>
    <path class="cls-3" d="M512 693.69a35.79 35.79 0 01-12.28 2.56h-2.87a51 51 0 00-5.57.16c-9.52.86-12 5.22-12.72 17.33-.31 5-3.14 10.2-5.88 14.66-2.49 4.06-6 7.5-9.8 11.84l-1.65 1.9 21.18 10.44c-6.1 1.86-12.41 6.11-16.71 4.6-8.56-3-14.91-.82-18.72 2.25-3.9-1.6-5.71-3-7.52-3h-1c-4.39 0-8.78.38-13.16.67l-2.7.17v-.17c-.05-.51-.09-1-.13-1.53 4.19-.95 8.36-2 12.57-2.89.9-.19 1.81-.36 2.72-.51 4.32-.73 6.36-2.1 6.74-7.25a58 58 0 011.47-8.37c1.53-6.91 2.86-13.76-3.32-20.22 3.58-8.71-2.22-10.31-8.6-10.93-8.67-.84-13-6.57-11.29-16.47.19 10.28 7.58 12.33 15.29 14.29 2.28.58 5.08 1.65 6.31 3.42 4.32 6.27 8.06 12.94 12.36 20 6.78-.8 9.9-7.75 10.22-14 .2-3.74-5.63-7.78-8.7-11.72-4.07-5.22-10.62-10-11.65-15.82-2.76-15.58-4.32-17.77-20-15.82-.49.06-1-.34-2-.71 9.41-5.2 17.48-3.55 24.95 4.43-.23-17.42-1.6-20.33-10.85-23.79l7.12-1.6q3.51 6.52 6.88 12.76c1.8-6.07 3.47-11.68 5.13-17.29l1.91.09-3.15 23 17.84-1.44c-8 2.67-17.78 2.46-20.45 12.62-2.71 10.34 8.14 11.29 13.45 18.15-.41-4.23-.64-6.63-.87-9l1.29-.18q2.12 7.22 4.24 14.42l1.85-.33v-15l1.23-.16c1 3.7 2 7.4 3.31 12.28l12.06-9.44c-.15 1.65-.28 3.28-.42 4.93l2 .12c2.33.14 4.59.29 6.83.39l2.32.09c3.58.15 7.15.07 10.74.07z"/>
    <path class="cls-4" d="M128.52 696a21.07 21.07 0 01-8.52 1.46c-8-.14-9.8 1.86-10.29 9.84a15.63 15.63 0 01-2.14 6.25c-.37.69-.77 1.35-1.16 2-.11.18-.23.36-.35.54a25.75 25.75 0 01-1.66 2.19c-1.31 1.55-2.83 3.11-4.44 5l11.92 5.87c-3.43 1-7 3.43-9.4 2.59-4.82-1.69-8.39-.47-10.52 1.26-2.2-.9-3.22-1.67-4.24-1.66-3.15 0-6.3.29-9.46.47 0-.32-.05-.64-.07-1 2.86-.65 5.7-1.43 8.59-1.92 2.43-.41 3.58-1.17 3.79-4.07a62.52 62.52 0 011.22-6.59 11.13 11.13 0 00-.42-6.82 9.63 9.63 0 00-1.84-2.67c1.41-3.41.25-4.88-1.79-5.57a13.68 13.68 0 00-3-.57c-4.88-.48-7.3-3.7-6.35-9.27.11 5.79 4.26 6.94 8.6 8a10 10 0 011.11.34 5 5 0 012.43 1.58c1.91 2.77 3.61 5.67 5.42 8.71l1.54 2.55a5.46 5.46 0 003.55-1.89 6.13 6.13 0 00.9-1.28 10.74 10.74 0 001.29-4.7c.06-1.21-1-2.47-2.22-3.74-.91-1-1.93-1.91-2.67-2.85-2.29-2.94-6-5.65-6.55-8.9-1.55-8.76-2.43-10-11.24-8.9-.27 0-.57-.19-1.14-.39 5.29-2.93 9.82-2 14 2.49-.07-5.5-.35-8.43-1.49-10.29-.9-1.45-2.33-2.24-4.62-3.09l4-.9 1.73 3.2q1.08 2 2.14 4c.4-1.36.79-2.68 1.18-4 .58-2 1.14-3.85 1.71-5.75h1.07c-.27 1.92-.53 3.84-.78 5.7-.22 1.6-.43 3.15-.63 4.63q-.19 1.35-.36 2.61l10-.81c-3.87 1.29-8.47 1.38-10.64 5a7.68 7.68 0 00-.86 2.09c-1.08 4.14 1.69 5.6 4.46 7.49a13.4 13.4 0 013.11 2.72c-.24-2.39-.37-3.73-.5-5.08l.73-.1c.79 2.71 1.59 5.41 2.38 8.11l1.05-.19v-8.45l.69-.1c.56 2.09 1.12 4.17 1.85 6.91l6.79-5.31-.24 2.78c2.17.12 4.23.27 6.29.33s4.04.15 6.05.15zM301 728.69c-7.41 0-14.2.45-20.89-.14-6.34-.55-8.54 1.68-7.87 7.84.39 3.54.07 7.16.07 12.54-10.42-5.11-2.78-14.68-8.48-20.66h-20.41l-.87-3c3.52-1.43 7-3.94 10.57-4.08 12-.46 24 .21 35.92-.11 5.65-.2 9.51 1.43 11.96 7.61zM295.85 708H247.3c2.73-7.28 6.69-9.82 13.08-9.44a79.74 79.74 0 0017.95-.52c8.74-1.48 13.94 2.05 17.21 9.24zM297.74 715.45c-.22 1.07-.44 2.13-.67 3.2h-51.6c-.36-.66-.72-1.31-1.07-2 2.91-1.85 6-5.52 8.69-5.24 6.18.66 12.56 0 18.9-.43 8.87-.54 17.68-.55 25.75 4.47zM290.32 695.46c-2.09-7.82-6-11.69-14-10.36a41.43 41.43 0 01-11.61.16c-7.67-.92-11.15 3.32-13.82 10.2zM254.46 683.53l31.75-1.84c-2.85-5.38-3.21-11.28-11.37-11.05-15.75.44-15.76.03-20.38 12.89zM283.94 669c-5.31-6.07-4.57-14.64-13.37-14.76-8.26-.11-7.95 7.45-11.89 13.5zM263.52 651.89h14.21l-7.62-15.24zM830.32 843.53c5.06-.3 10.11-.77 15.17-.77 1.63 0 3.27 1.23 6.79 2.66 3.43-2.76 9.15-4.72 16.88-2 3.88 1.36 9.56-2.48 15.06-4.15l-19.1-9.41c4-4.76 7.77-8.22 10.33-12.39s5-8.7 5.3-13.23c.78-12.8 3.71-16 16.5-15.77a33.75 33.75 0 0013.66-2.34c-3.22 0-6.44.07-9.66 0s-6.59-.34-10.08-.54l.38-4.44-10.87 8.52c-1.19-4.4-2.08-7.74-3-11.09l-1.11.15v13.56l-1.67.31-3.83-13-1.16.17c.21 2.15.42 4.31.79 8.13-4.8-6.19-14.58-7-12.13-16.37 2.4-9.17 11.2-9 18.43-11.39l-16.08 1.3 2.84-20.74-1.72-.08c-1.5 5.06-3 10.12-4.63 15.59l-6.21-11.51-6.42 1.44c8.35 3.12 9.58 5.75 9.79 21.46-6.74-7.2-14-8.69-22.5-4 .91.33 1.4.69 1.84.64 14.12-1.76 15.53.22 18 14.27.92 5.21 6.83 9.55 10.5 14.27 2.77 3.55 8 7.19 7.85 10.56-.29 5.64-3.11 11.91-9.21 12.63-3.89-6.39-7.26-12.4-11.16-18-1.1-1.6-3.63-2.57-5.69-3.09-6.94-1.77-13.61-3.61-13.79-12.89-1.51 8.93 2.37 14.1 10.19 14.86 5.75.56 11 2 7.75 9.85 7.83 8.18 2.31 17 1.67 25.79-.34 4.64-2.18 5.88-6.08 6.53-4.63.79-9.19 2-13.78 3.07zM411.26 700.41c-4.26.53-8.05.85-11.55 1.24a65.61 65.61 0 00-10.18 1.76c-2.88.79-7.61 1.84-6.74 7.73a101.53 101.53 0 01.8 12.84c.05 2.53.09 5 .23 7.56.21 3.62.05 6.68-4.84 6.42-4.57-.24-4.94-2.89-4.64-6.72.24-3 .43-6 .59-9 .3-5.63.5-11.18.77-16.51l-28.7-5.8 13.78-9.3-15.07-1.16 15.29-8.84c-.88-3.25-1.35-5-1.93-7.16l-4.65-.89 13.87-18.48-6.86-1.49 10-7.76-5.9-.94 10.71-40.22 3.45-.09L391 644.34l-5.58.75c10.56 6.75 3.13 22.77 17.37 25.78l-7 9 9.77 6.74c1.32.9 2.67 1.84 4.06 2.8l-5.6.85-7.22 1.09 7.2 4.53z"/>
    <path class="cls-5" d="M438.89 757.18h-22.43c-3.81 3 .48 10.73-7.31 11.06-.52-4.4-.9-7.62-1.4-11.73h-21.83c.21-14.39 10.55-14.53 19.85-16.27l-16.13-1.37c1.21-5 2.35-9.71 5.11-12.7 2.13-2.31 5.23-3.6 10.07-3.21l-12.75-1.15-.79-2.13 12.81-12.22-8-.94 3.66-4.87 4.34-5.79 2-2.7-2.92-.79c.3-.71.6-1.43.91-2.13l1.54-3.65 5.48-12.88 13 26.6-8.74 1.29c8.76.11 9.77 6.64 11.8 13.12L415 716c10-1 15 3.85 16.53 13.8l-13.38 1-10.6.82c11.86 3.34 26.82-3.12 28.31 15.2l-22.16 1.7c6.34 3.56 14.88-.53 21.33 4.17a13.54 13.54 0 013.43 3.75c.16.29.3.56.43.74z"/>
    <path class="cls-4" d="M358.78 728l-.24 1.91-10.54-1.63c-3.43-.53-6.88-1.55-10.28-1.41-2.69.1-4.89 1.24-2.43 5.12a19.82 19.82 0 012.57 9.92c.12 7.81-.17 7.81 5.3 11.83h-21.48c5.16-3.22 8.3-9 7.82-14.21s-5.83-5.39-8.9-7.94c-2.75-2.28-4.69-5.56-6.9-8.46-1.7-2.23-3-6.12-5-6.43-2.41-.38-5.34 2.07-7.93 3.49a23.59 23.59 0 00-3.44 2.77l-.41-.71 5.93-10.82-.19-.16.42-.59 14.31 6.23c1.64-1.43 3.53-2.93 5.39-4.58.86-.76 1.72-1.55 2.54-2.38 2.56-2.57 2.91-5.54.08-8.27-2.61-2.52-4.8-2.95-8.67-.94-5.33 2.76-11.67 3.56-17.62 5.07-.55.14-1.36-.71-2.82-1.53 7.19.76 9.8-.9 9.27-5.18 6.74 3.45 7.31 3.38 10.23-1.49l-6.38-2.39 12.47 1.25c-2-9.7-2.6-18.49 3.88-26.15.25 2.74.51 5.56.79 8.49h5.77a4.66 4.66 0 01-3.27 1.59c-3.28-.29-5.37 1.25-4.92 4.27.42 2.81 1.46 6.71 3.49 7.84 4.13 2.3 9.11 3 13.74 4.43-.11.49-.21 1-.32 1.46L329 696l-.86 1.43 11.58 10.66-.58.8-4.39-2c-2 2.31-3.6 4.65-5.45 6.65a20.92 20.92 0 01-1.92 1.85c-8.05 6.77-8 7.73 1.42 12.53a4.52 4.52 0 001.33.16c.73-1.4 1.5-2.87 2-3.92h18.76l-3.35 1.22 1 1.3z"/>
    <path class="cls-3" d="M255.45 663.16a37.6 37.6 0 01-15.15 2.59c-14.18-.25-17.43 3.3-18.3 17.49-.3 5-3.14 10.21-5.88 14.67-2.84 4.62-7 8.46-11.45 13.74l21.18 10.44a45.66 45.66 0 00-4.66 1.76c-4.52 1.89-8.84 4-12 2.85-.78-.27-1.53-.5-2.27-.69-7.44-1.91-13 .14-16.46 2.93-3.9-1.59-5.71-3-7.52-3-3.86 0-7.71.25-11.57.51-1.75.12-3.51.24-5.26.34 0-.57-.09-1.13-.14-1.7 2.61-.59 5.21-1.24 7.81-1.85 1.47-.35 2.95-.68 4.43-1 1-.21 2-.41 3.05-.58 4.32-.73 6.37-2.1 6.74-7.25.71-9.7 6.83-19.53-1.84-28.6 1.62-3.93 1.32-6.42-.09-8-1.7-1.94-5-2.58-8.52-2.92-8.67-.84-13-6.57-11.29-16.47.19 10.28 7.59 12.33 15.29 14.29a14.35 14.35 0 015.26 2.33 4.91 4.91 0 011 1.09c3 4.36 5.74 8.91 8.56 13.66 1.24 2.08 2.5 4.2 3.81 6.36 6.78-.79 9.9-7.75 10.22-14 .2-3.74-5.63-7.78-8.7-11.72-4.08-5.23-10.62-10-11.65-15.83-2.77-15.57-4.32-17.77-20-15.82-.48.06-1-.34-2-.71 9.42-5.2 17.48-3.55 25 4.43-.23-17.42-1.6-20.33-10.86-23.8l7.12-1.59 6.89 12.76c1.8-6.07 3.47-11.68 5.13-17.29l1.91.09-3.15 23 17.84-1.44c-8 2.68-17.78 2.46-20.45 12.62-2.71 10.35 8.14 11.3 13.46 18.16-.41-4.24-.65-6.63-.88-9l1.29-.18q2.11 7.22 4.24 14.42l1.86-.33v-15l1.23-.17c1 3.71 2 7.41 3.3 12.29l12.02-9.43-.42 4.93c3.87.21 7.52.49 11.18.59s7.12.03 10.69.03z"/>
    <path class="cls-4" d="M217.75 752.48c-7.36.92-13.07 1.08-18.43 2.54-2.45.67-6.46 1.56-5.72 6.56.84 5.69.56 11.53.88 17.3.17 3.08 0 5.66-4.11 5.45-3.87-.2-4.19-2.45-3.93-5.7.58-7.34.8-14.7 1.15-21.6l-24.38-4.95 11.68-7.89-12.78-1 13-7.5c-.75-2.76-1.15-4.26-1.64-6.08l-3.94-.75 1.79-2.39 2.41-3.21c.33-.45.67-.89 1-1.34l6.55-8.74-5.82-1.26 8.44-6.59-5-.79q3.59-13.41 7.11-26.69c.25-.93.5-1.85.74-2.77.41-1.55.83-3.1 1.24-4.65l2.92-.08q2.72 9.74 5.45 19.48 2.1 7.51 4.22 15.07l-4.74.64c7 4.51 4.65 13.87 9.18 18.91a8.5 8.5 0 001.84 1.54 11.41 11.41 0 003.71 1.42l-5.9 7.59 11.73 8.09-10.88 1.65c4.4 2.8 7.48 4.75 12.23 7.74z"/>
    <path class="cls-5" d="M151.38 766H135.6c-2.67 2.13.34 7.54-5.13 7.77-.37-3.1-.64-5.36-1-8.25h-15.34c.14-10.11 7.42-10.22 14-11.44l-11.34-1c1.5-6.24 2.86-11.81 10.67-11.19l-9-.81c-.19-.49-.38-1-.56-1.49l9-8.6-5.66-.66 7.06-9.39-2.06-.56c.6-1.42 1.2-2.82 1.78-4.2l3.8-8.92 2.39 4.89c.85 1.72 1.68 3.43 2.53 5.15.15.32.31.65.48 1 1.23 2.53 2.48 5.08 3.75 7.68l-6.14.91c6.16.08 6.87 4.67 8.29 9.23l-8.54.92c7-.69 10.57 2.71 11.62 9.71l-16.85 1.3c8.33 2.35 18.85-2.19 19.9 10.69L133.68 760c5.42 3 13.11-1.87 17.7 6z"/>
    <path class="cls-4" d="M863.32 839.57l-.21 1.73-9.54-1.5a74.14 74.14 0 00-7.88-1.25 12.93 12.93 0 00-1.39 0 4.06 4.06 0 00-2.66.83c-.66.64-.74 1.73.28 3.47l.19.31a18 18 0 012.32 9c.07 4.95 0 6.42 1.61 8.12a25.47 25.47 0 003.16 2.55h-19.32a15.73 15.73 0 003.11-2.55 13.54 13.54 0 003.93-10.27c-.45-4.87-5.25-4.86-8-7.15-2.48-2.06-4.22-5-6.22-7.63-1.53-2-2.72-5.52-4.47-5.8-2.17-.34-4.81 1.87-7.15 3.15A20.33 20.33 0 00808 835l-.38-.65q2.68-4.87 5.35-9.75l-.17-.14.38-.53 12.9 5.61c2.17-1.88 4.82-3.92 7.16-6.27s2.62-5 .07-7.46c-2.36-2.27-4.33-2.66-7.82-.85-4.8 2.49-10.53 3.22-15.88 4.57-.51.13-1.24-.64-2.55-1.38 6.48.69 8.84-.8 8.35-4.66 6.08 3.1 6.6 3 9.23-1.35l-5.79-2.14 11.24 1.12a45 45 0 01-1.15-11.76 20 20 0 012.29-8.38 19.21 19.21 0 011.3-2.07c.32-.46.68-.92 1.06-1.37.09.93.17 1.87.26 2.83.13 1.38.26 2.78.39 4.21l.06.62h5.2a6 6 0 01-1.49 1.09 2.71 2.71 0 01-1.45.34c-3-.26-4.84 1.13-4.44 3.85 0 .17 0 .34.09.52.42 2.47 1.35 5.6 3.06 6.55 3.72 2.07 8.21 2.75 12.38 4-.09.44-.19.88-.28 1.32l-10.91-2.2-.78 1.3 10.44 9.6-.52.72-4-1.77c-2.35 2.77-4.18 5.59-6.64 7.66-7.26 6.1-7.26 7 1.28 11.3a4.09 4.09 0 001.2.14c.65-1.26 1.35-2.59 1.84-3.53h16.91l-3 1.1.86 1.17z"/>
  </g>
  <g id="Bacgkround4">
    <path class="cls-6" d="M977 758.84c9.84 11.64 8.87 25 5.89 39.71l18.93-1.89-9.68 3.63c4.43 7.39 5.3 7.5 15.54 2.26-.81 6.5 3.15 9 14.07 7.86-2.21 1.25-3.44 2.54-4.29 2.33-9-2.29-18.66-3.51-26.74-7.7-5.89-3-9.21-2.39-13.18 1.43-4.29 4.14-3.76 8.66.12 12.56s8.4 7.39 12.05 10.56l21.73-9.45.64.89-4 3.29 3.63-3.24q4.55 8.31 9.11 16.62l-.63 1.09c-1.73-1.43-3.29-3.16-5.22-4.22-3.94-2.16-8.39-5.87-12-5.29-2.94.47-5 6.37-7.53 9.75-3.36 4.41-6.29 9.4-10.47 12.85-4.67 3.87-12.76 3.85-13.52 12.06-.74 8 4 16.7 11.87 21.58h-32.64c8.3-6.1 7.87-6.1 8.05-18 .07-5.1 1.23-10.88 3.9-15.07 3.73-5.88.39-7.62-3.69-7.78-5.17-.2-10.41 1.34-15.61 2.15q-8 1.25-16.07 2.53l-.36-2.91 15.58-2.05 1.45-2-5.08-1.86h28.48l3.1 5.95a7.3 7.3 0 002-.23c14.36-7.29 14.37-8.76 2.14-19-4.14-3.48-7.21-8.24-11.19-12.9l-6.66 3-.88-1.21L973.46 800l-1.32-2.18-18.37 3.7-.48-2.22c7-2.11 14.6-3.24 20.86-6.73 3.09-1.72 4.67-7.64 5.3-11.9.68-4.59-2.48-6.93-7.47-6.49-1.66.15-3.43-1-5-2.42h8.76q.67-6.69 1.26-12.92z"/>
    <path class="cls-6" d="M1024 1024H0v-52.42s63-7.77 107.13-19.3 98-56.37 149.64-63 210.53-13.84 267-28.8 214.37-43.65 214.37-43.65 40.07 17.9 73.84 19 173.6-23 212.07-21.75z"/>
    <path class="cls-7" d="M494 822.88l6.09 4.74-4.2.91 8.48 11.29-2.84.54c-.36 1.31-.65 2.39-1.18 4.38l9.36 5.4-9.2.71 8.41 5.68-17.56 3.57c.25 5 .41 10.27.83 15.55.19 2.34 0 4-2.83 4.11-3 .16-3.08-1.71-3-3.92.23-4.16 0-8.37.63-12.46.53-3.61-2.35-4.25-4.12-4.73-3.86-1-8-1.17-13.27-1.83l8.8-5.55-7.83-1.18 8.45-5.83-4.26-5.48c8.69-1.84 4.16-11.63 10.61-15.76l-3.41-.45c2.33-8.35 4.64-16.62 7-24.89l2.1.06q3.27 12.24 6.55 24.56z"/>
    <path class="cls-8" d="M532.58 821.28l6.08 4.74-4.19.91 8.47 11.29-2.84.54c-.35 1.31-.64 2.39-1.18 4.38l9.36 5.4-9.2.71 8.42 5.68-17.57 3.57c.25 5 .42 10.27.84 15.55.18 2.34 0 4-2.84 4.11-3 .16-3.08-1.71-3-3.92.23-4.16 0-8.37.63-12.46.54-3.61-2.35-4.25-4.12-4.73-3.85-1-8-1.17-13.27-1.83l8.81-5.55-7.84-1.18 8.45-5.83-4.26-5.48c8.7-1.84 4.16-11.63 10.61-15.76l-3.41-.45c2.33-8.35 4.65-16.62 7-24.89l2.1.06q3.27 12.24 6.55 24.56z"/>
    <path class="cls-7" d="M309.89 794.58L321 803.2l-7.63 1.66 15.41 20.53-5.16 1c-.64 2.37-1.17 4.34-2.15 8l17 9.82-16.73 1.29L337 855.77l-31.94 6.49c.46 9 .75 18.68 1.51 28.29.34 4.25-.07 7.2-5.14 7.47-5.44.28-5.61-3.11-5.39-7.14.42-7.56.05-15.21 1.15-22.66 1-6.55-4.29-7.71-7.49-8.59-7-1.92-14.5-2.13-24.14-3.33l16-10.09-14.25-2.15 15.36-10.6-7.75-10c15.82-3.34 7.56-21.14 19.29-28.64l-6.2-.83c4.25-15.19 8.45-30.23 12.66-45.26l3.83.1q5.93 22.27 11.9 44.67zM99.35 881l9 7-6.19 1.34L114.65 906l-4.19.8c-.52 1.93-.95 3.53-1.75 6.46l13.82 8-13.58 1 12.42 8.38-25.92 5.27c.37 7.33.61 15.16 1.23 23 .27 3.45-.06 5.84-4.18 6.06-4.41.23-4.55-2.53-4.37-5.79.34-6.14 0-12.35.93-18.4.79-5.31-3.48-6.25-6.08-7-5.69-1.55-11.77-1.72-19.59-2.7l13-8.19-11.56-1.75 12.46-8.6-6.29-8.1c12.84-2.72 6.14-17.16 15.66-23.25l-5-.67 10.24-36.73 3.11.07c3.21 12.06 6.42 24.12 9.66 36.27z"/>
    <path class="cls-6" d="M253.31 881.29l-23.41-1.81c1.46-9.72 6.38-14.48 16.1-13.48l-11.86-1.27c2-6.33 3-12.71 11.52-12.82l-8.54-1.26 12.72-26c2.52 5.94 5.09 12 7.75 18.22l-2.86.78 9.79 13-7.85.92 12.52 11.94-.78 2.08-12.41 1.17c10.85-.87 12.74 6.87 14.83 15.55l-15.76 1.33c9.08 1.7 19.19 1.84 19.39 15.89h-21.33c-.47 4-.85 7.16-1.36 11.45-7.6-.31-3.42-7.82-7.13-10.79h-21.92c6.37-11 17.06-4.16 24.59-8.39l-21.64-1.67c1.45-17.89 16.06-11.57 27.64-14.84z"/>
    <path class="cls-7" d="M876 812.27L859.16 811c1.05-7 4.6-10.4 11.62-9.71l-8.54-.92c1.43-4.56 2.14-9.15 8.3-9.23l-6.15-.91 9.16-18.7c1.81 4.28 3.66 8.62 5.57 13.12l-2 .56 7 9.39-5.65.66 9 8.6-.56 1.5-9 .8c7.81-.62 9.17 5 10.68 11.19l-11.34 1c6.53 1.22 13.81 1.33 14 11.44h-15.36c-.34 2.9-.61 5.16-1 8.25-5.48-.23-2.46-5.63-5.14-7.77H854c4.58-7.9 12.27-3 17.7-6L856.11 823c1.05-12.92 11.57-8.38 19.89-10.73z"/>
    <path class="cls-6" d="M36.41 941.18L14.8 939.5c1.35-9 5.9-13.33 14.9-12.44l-10.95-1.18c1.83-5.88 2.74-11.73 10.63-11.88l-7.87-1.16 11.73-24 7.16 16.82-2.64.72 9 12-7.25.85 11.56 11-.72 1.92-11.49 1c10-.81 11.75 6.34 13.68 14.34L38 948.88c8.38 1.57 17.71 1.7 17.9 14.67H36.25c-.44 3.71-.79 6.61-1.26 10.58-7-.29-3.16-7.23-6.58-10H8.18c5.88-10.13 15.74-3.84 22.69-7.74l-20-1.54c1.36-16.49 14.85-10.66 25.54-13.67z"/>
    <path class="cls-8" d="M368.13 861.44l-3.88.52c1.66 4.26 3.25 8.37 4.87 12.55l-3.08 1 3.15 10.49-8.75.63v21.54h-5.82c.38-7.06.76-14 1.17-21.45l-9.67-.77a34.68 34.68 0 002-5.35c.37-2 4.1-4.38-.41-6.17a7.47 7.47 0 01.52-2.68c1.13-3.12 2.34-6.21 3.67-9.71l-3.77-.61c1.48-3.78 2.85-7.3 4.32-11l-3.1-.87 4.78-9.93-2.27-.85c1.3-5.06 2.45-9.87 3.78-14.63.34-1.21 1.24-2.26 2.15-3.87l5.33 9-2.83.81 4.47 8.54-2.91 1.05 4.88 9.76-3.45.87zM212.27 839.12l-6.48.87 8.13 21-5.14 1.73c1.74 5.74 3.41 11.25 5.26 17.38l-14.63 1.06v36h-9.72c.64-11.79 1.27-23.35 2-35.85L175.5 880c1.24-3.3 2.7-6 3.26-8.94.63-3.33 6.85-7.32-.68-10.31-.27-.11.34-3 .87-4.48 1.88-5.21 3.91-10.37 6.14-16.23l-6.31-1c2.47-6.31 4.77-12.19 7.22-18.47l-5.19-1.46c2.68-5.55 5.3-11 8-16.58l-3.81-1.44c2.16-8.46 4.09-16.5 6.32-24.45.56-2 2.06-3.78 3.58-6.46l8.92 15-4.74 1.36 7.47 14.26-4.86 1.76c2.69 5.39 5.27 10.56 8.15 16.31l-5.77 1.45c2.72 6.21 5.33 12.2 8.2 18.8zM994 749.72l-7.3 1c3.11 8 6.1 15.73 9.16 23.6l-5.79 1.94c2 6.46 3.84 12.66 5.92 19.56L979.54 797v40.51h-10.95c.73-13.27 1.44-26.27 2.21-40.35l-18.18-1.44c1.4-3.72 3-6.79 3.67-10.06.71-3.75 7.71-8.24-.76-11.6-.31-.12.38-3.38 1-5 2.11-5.87 4.39-11.67 6.91-18.27l-7.1-1.14 8.12-20.79-5.84-1.63c3-6.25 6-12.38 9-18.67l-4.25-1.59c2.43-9.53 4.6-18.57 7.11-27.53.64-2.27 2.32-4.25 4-7.27l10 16.92-5.32 1.53c2.81 5.38 5.52 10.55 8.4 16l-5.46 2c3 6.07 5.93 11.89 9.16 18.36l-6.48 1.62c3.06 6.96 6 13.7 9.22 21.12zM468.05 888.67c-6.92-.4-13.85-1-20.78-1-2.24 0-4.47 1.68-9.29 3.65-4.71-3.79-12.54-6.47-23.13-2.77-5.31 1.86-13.1-3.39-20.64-5.69l26.17-12.89c-5.55-6.52-10.64-11.26-14.15-17-3.38-5.5-6.88-11.91-7.26-18.11-1.07-17.53-5.08-21.91-22.6-21.6a46.15 46.15 0 01-18.71-3.26c4.41 0 8.82.1 13.22 0s9-.48 13.81-.74l-.51-6.09 14.89 11.67 4.08-15.18 1.52.2v18.58l2.29.41L412.2 801l1.59.22c-.28 3-.57 5.91-1.08 11.14 6.57-8.47 20-9.64 16.62-22.42-3.29-12.56-15.35-12.29-25.26-15.6l22 1.78-3.89-28.41 2.35-.12c2.06 6.93 4.12 13.86 6.34 21.36l8.51-15.76 8.8 2c-11.44 4.27-13.13 7.88-13.41 29.39 9.23-9.86 19.19-11.89 30.82-5.47-1.25.45-1.92 1-2.52.87-19.35-2.4-21.27.31-24.69 19.55-1.26 7.14-9.35 13.09-14.38 19.54-3.8 4.87-11 9.86-10.76 14.48.4 7.72 4.26 16.31 12.63 17.29 5.31-8.74 9.93-17 15.27-24.72 1.51-2.19 5-3.52 7.8-4.23 9.52-2.42 18.65-4.95 18.89-17.66 2.07 12.23-3.24 19.32-13.95 20.36-7.88.76-15.05 2.73-10.63 13.49-10.71 11.2-3.16 23.34-2.28 35.33.47 6.36 3 8.05 8.33 9 6.35 1.07 12.59 2.77 18.88 4.2z"/>
    <path class="cls-6" d="M601.38 868.72c-5.6-.32-11.21-.85-16.82-.85-1.81 0-3.62 1.36-7.52 3-3.81-3.06-10.16-5.24-18.72-2.24-4.3 1.5-10.61-2.75-16.71-4.61l21.18-10.43c-4.49-5.28-8.61-9.12-11.45-13.74-2.74-4.46-5.57-9.65-5.88-14.66-.86-14.2-4.11-17.74-18.29-17.49a37.6 37.6 0 01-15.17-2.64c3.57 0 7.14.08 10.71 0s7.31-.38 11.17-.59c-.14-1.65-.27-3.28-.42-4.93l12.08 9.46c1.32-4.88 2.31-8.58 3.31-12.29l1.23.17v15l1.85.34q2.12-7.22 4.24-14.42l1.29.18c-.23 2.39-.46 4.78-.87 9 5.31-6.86 16.16-7.81 13.45-18.15-2.67-10.16-12.43-10-20.45-12.63l17.84 1.45-3.15-23 1.91-.09c1.66 5.61 3.33 11.22 5.13 17.29l6.88-12.76 7.12 1.59c-9.25 3.47-10.62 6.38-10.85 23.8 7.47-8 15.54-9.63 24.95-4.43-1 .37-1.55.77-2 .71-15.66-2-17.22.24-20 15.82-1 5.78-7.58 10.59-11.65 15.82-3.07 3.94-8.9 8-8.7 11.72.32 6.25 3.44 13.2 10.22 14 4.3-7.08 8-13.75 12.36-20 1.23-1.77 4-2.84 6.31-3.42 7.71-2 15.1-4 15.29-14.29 1.68 9.89-2.62 15.63-11.29 16.47-6.38.62-12.18 2.21-8.6 10.92-8.67 9.07-2.56 18.9-1.85 28.6.38 5.15 2.42 6.52 6.74 7.25 5.14.87 10.2 2.24 15.29 3.4z"/>
    <path class="cls-7" d="M945.74 843.2c-3.16-.18-6.31-.47-9.46-.48-1 0-2 .77-4.24 1.67-2.13-1.73-5.7-2.95-10.52-1.27-2.42.85-6-1.54-9.4-2.59l11.88-5.86c-2.53-3-4.85-5.13-6.45-7.73s-3.13-5.42-3.3-8.25c-.49-8-2.31-10-10.29-9.83a21.07 21.07 0 01-8.52-1.46c2 0 4 .05 6 0s4.12-.22 6.29-.34l-.24-2.77 6.79 5.31c.73-2.74 1.29-4.82 1.85-6.91l.69.1v8.45l1 .19 2.38-8.11.73.1c-.13 1.35-.26 2.69-.5 5.07 3-3.85 9.09-4.39 7.57-10.2s-7-5.6-11.5-7.1l10 .81c-.52-3.82-1.14-8.38-1.77-12.94h1.07c.94 3.16 1.88 6.31 2.89 9.72l3.87-7.17 4 .89c-5.21 1.95-6 3.59-6.11 13.38 4.21-4.48 8.74-5.41 14-2.49-.57.21-.87.44-1.14.4-8.81-1.09-9.69.14-11.24 8.9-.58 3.25-4.26 6-6.55 8.9-1.73 2.21-5 4.48-4.89 6.59.18 3.51 1.93 7.42 5.74 7.87 2.42-4 4.52-7.73 7-11.26a6.27 6.27 0 013.54-1.92c4.34-1.1 8.49-2.26 8.6-8 1 5.57-1.47 8.79-6.35 9.27-3.59.34-6.85 1.24-4.83 6.14-4.88 5.1-1.44 10.62-1 16.08.21 2.89 1.36 3.66 3.79 4.07 2.89.49 5.73 1.26 8.59 1.91z"/>
    <path class="cls-8" d="M759.7 837.38c2.46-6.18 6.32-7.8 12-7.65 12 .31 24-.35 35.92.1 3.58.14 7.06 2.66 10.58 4.08l-.87 3.05h-20.45c-5.7 6 1.94 15.55-8.49 20.67 0-5.39-.31-9 .07-12.55.67-6.15-1.53-8.39-7.86-7.83-6.7.59-13.48.13-20.9.13zM764.86 816.67c3.24-7.67 8.48-11.48 17.52-9.95a79.72 79.72 0 0018 .51c6.39-.38 10.35 2.16 13.08 9.44zM763 824.14c13.85-8.59 29.83-2.43 44.66-4 2.68-.28 5.78 3.4 8.69 5.25l-1.07 2h-51.6a52.42 52.42 0 01-.68-3.25zM770.38 804.16c2.1-7.82 6-11.7 14-10.36a41.42 41.42 0 0011.62.2c7.67-.92 11.15 3.31 13.82 10.2zM806.25 792.22l-31.75-1.83c2.85-5.38 3.21-11.28 11.36-11.06 15.75.44 15.76.03 20.39 12.89zM776.77 777.71c5.31-6.07 4.57-14.63 13.37-14.75 8.25-.12 8 7.44 11.89 13.49zM797.18 760.59H783c2.55-5.11 4.76-9.52 7.61-15.25 2.51 5.85 4.39 10.24 6.57 15.25zM69.33 917.74c5.84 6.91 5.26 14.84 3.49 23.58l11.24-1.12-5.75 2.15c2.63 4.39 3.15 4.45 9.23 1.34-.48 3.86 1.87 5.36 8.35 4.67-1.31.74-2 1.51-2.54 1.38-5.36-1.35-11.08-2.08-15.88-4.57-3.5-1.81-5.47-1.42-7.82.85-2.56 2.46-2.24 5.14.07 7.46s5 4.39 7.15 6.27l12.9-5.61.38.53-2.38 2 2.15-1.92 5.41 9.86-.37.65a20.9 20.9 0 00-3.11-2.5c-2.34-1.29-5-3.49-7.15-3.15-1.75.28-2.94 3.79-4.47 5.79-2 2.62-3.74 5.58-6.22 7.63-2.77 2.3-7.57 2.29-8 7.16s2.4 9.92 7 12.82h-19.3c4.92-3.62 4.67-3.63 4.78-10.67a17.82 17.82 0 012.31-8.95c2.22-3.49.23-4.52-2.19-4.61-3.07-.12-6.18.79-9.27 1.27l-9.54 1.5-.21-1.73 9.25-1.21.86-1.17-3-1.11h16.89l1.85 3.54a4.2 4.2 0 001.2-.14c8.53-4.33 8.53-5.2 1.27-11.3-2.46-2.07-4.28-4.9-6.64-7.66l-4 1.77-.52-.72 10.44-9.61-.78-1.29-10.91 2.19-.28-1.32c4.17-1.24 8.66-1.92 12.38-4 1.84-1 2.78-4.54 3.15-7.07.4-2.72-1.47-4.11-4.44-3.85a4.17 4.17 0 01-2.94-1.43h5.2q.43-4 .76-7.7z"/>
    <path class="cls-7" d="M176.48 954.89c-5.06-.29-10.11-.76-15.17-.76-1.63 0-3.27 1.23-6.79 2.66-3.43-2.76-9.15-4.72-16.88-2-3.88 1.36-9.56-2.48-15.06-4.15l19.1-9.42c-4.05-4.75-7.77-8.22-10.33-12.39-2.47-4-5-8.69-5.3-13.22-.78-12.8-3.71-16-16.5-15.77a33.75 33.75 0 01-13.66-2.34c3.22 0 6.44.07 9.66 0s6.59-.34 10.08-.54l-.38-4.44 10.87 8.48c1.19-4.41 2.08-7.75 3-11.09l1.11.15v13.56l1.67.3q1.92-6.49 3.83-13l1.16.16-.79 8.14c4.79-6.19 14.58-7 12.13-16.37-2.4-9.17-11.2-9-18.44-11.39l16.09 1.3L143 852l1.72-.09c1.5 5.06 3 10.12 4.63 15.6l6.23-11.51 6.42 1.44c-8.35 3.12-9.58 5.75-9.79 21.45 6.74-7.19 14-8.68 22.5-4-.91.33-1.4.69-1.84.64-14.12-1.76-15.53.22-18 14.26-.93 5.22-6.83 9.56-10.5 14.27-2.77 3.56-8 7.2-7.85 10.57.29 5.64 3.11 11.91 9.21 12.63 3.88-6.39 7.26-12.4 11.15-18 1.11-1.6 3.63-2.57 5.7-3.09 6.94-1.77 13.61-3.61 13.78-12.89 1.52 8.93-2.36 14.1-10.18 14.86-5.75.56-11 2-7.76 9.85-7.82 8.18-2.3 17-1.66 25.79.34 4.64 2.18 5.87 6.08 6.53 4.63.79 9.19 2 13.78 3.07z"/>
    <path class="cls-8" d="M672.49 754.63l10 7.76-6.86 1.49 13.87 18.49-4.64.89-1.94 7.16 15.33 8.84-15.06 1.16 13.77 9.3-28.75 5.84c.41 8.14.68 16.82 1.36 25.47.31 3.83-.06 6.48-4.63 6.72-4.89.25-5-2.8-4.85-6.43.38-6.8 0-13.69 1-20.39.87-5.9-3.86-6.95-6.75-7.73-6.31-1.73-13.05-1.92-21.73-3l14.39-9.08-12.82-2 13.82-9.49-7-9c14.24-3 6.81-19 17.36-25.79l-5.58-.74c3.83-13.68 7.61-27.21 11.4-40.74l3.44.08c3.57 13.38 7.13 26.75 10.72 40.22z"/>
    <path class="cls-7" d="M602.69 821.41l-24-1.86c1.49-9.95 6.54-14.79 16.53-13.8l-12.15-1.31c2-6.48 3-13 11.8-13.13l-8.72-1.31 13-26.59c2.59 6.08 5.21 12.25 7.93 18.65l-2.92.8 10 13.35-8 .94L619 809.4l-.8 2.13-12.74 1.15c11.1-.89 13 7 15.18 15.91L604.49 830c9.3 1.74 19.64 1.89 19.85 16.27H602.5c-.49 4.12-.87 7.33-1.39 11.73-7.79-.32-3.51-8-7.31-11.05h-22.43c6.52-11.24 17.46-4.26 25.17-8.59l-22.16-1.7c1.49-18.37 16.45-11.91 28.31-15.25z"/>
    <path class="cls-7" d="M639.19 795.41c6.47 7.67 5.84 16.46 3.88 26.16l12.46-1.25-6.38 2.39c2.92 4.86 3.5 4.94 10.24 1.49-.54 4.28 2.08 5.94 9.26 5.18-1.45.82-2.26 1.67-2.82 1.52-5.94-1.5-12.29-2.3-17.61-5.06-3.88-2-6.06-1.58-8.68.94-2.83 2.72-2.48 5.7.08 8.27s5.53 4.87 7.94 7l14.3-6.22.42.59-2.64 2.16 2.36-2.18 6 10.94-.41.72a24.35 24.35 0 00-3.44-2.78c-2.6-1.42-5.53-3.87-7.94-3.48-1.94.31-3.26 4.2-5 6.42-2.21 2.9-4.14 6.19-6.89 8.46-3.08 2.55-8.41 2.54-8.9 7.94s2.66 11 7.81 14.22h-21.36c5.46-4 5.18-4 5.29-11.83a20 20 0 012.57-9.93c2.46-3.87.26-5-2.43-5.12-3.4-.13-6.85.88-10.27 1.42s-7.03 1.11-10.59 1.62l-.24-1.92 10.26-1.34 1-1.3-3.35-1.23h18.76l2 3.92a4.68 4.68 0 001.34-.15c9.46-4.8 9.46-5.77 1.41-12.54-2.73-2.29-4.75-5.42-7.37-8.49l-4.39 2-.58-.8 11.58-10.65-.86-1.44-12.1 2.44-.31-1.46c4.62-1.39 9.61-2.14 13.73-4.43 2-1.14 3.08-5 3.49-7.84.45-3-1.63-4.57-4.92-4.27a4.65 4.65 0 01-3.26-1.6h5.77q.4-4.38.79-8.49z"/>
    <path class="cls-6" d="M758 836.62c-5.61-.32-11.22-.85-16.83-.85-1.81 0-3.63 1.36-7.53 3-3.8-3.07-10.15-5.24-18.72-2.25-4.3 1.51-10.61-2.74-16.71-4.61l21.19-10.43c-4.5-5.28-8.62-9.12-11.46-13.75-2.74-4.46-5.57-9.64-5.88-14.66-.86-14.2-4.11-17.74-18.3-17.5a37.43 37.43 0 01-15.15-2.59c3.57 0 7.14.08 10.71 0s7.32-.38 11.18-.6c-.14-1.64-.28-3.27-.42-4.93l12.06 9.45c1.31-4.88 2.31-8.59 3.31-12.29l1.23.16v15l1.85.34q2.11-7.22 4.24-14.42l1.29.18c-.23 2.39-.46 4.78-.87 9 5.31-6.86 16.16-7.81 13.45-18.16-2.66-10.16-12.43-10-20.45-12.63l17.84 1.45c-.93-6.8-2-14.91-3.14-23l1.9-.09c1.67 5.61 3.33 11.22 5.13 17.29l6.93-12.73 7.12 1.59c-9.25 3.46-10.62 6.38-10.85 23.8 7.47-8 15.54-9.63 25-4.43-1 .37-1.55.77-2 .71-15.66-2-17.22.24-20 15.82-1 5.79-7.57 10.6-11.64 15.83-3.07 3.94-8.9 8-8.71 11.72.32 6.25 3.45 13.2 10.22 14 4.31-7.08 8.05-13.75 12.37-20 1.22-1.77 4-2.85 6.31-3.43 7.71-1.95 15.1-4 15.29-14.29 1.68 9.9-2.61 15.64-11.29 16.48-6.38.62-12.18 2.21-8.6 10.93-8.68 9.07-2.56 18.89-1.85 28.6.38 5.15 2.42 6.52 6.74 7.25 5.14.87 10.2 2.24 15.29 3.4z"/>
    <path class="cls-8" d="M898.86 829.51l8.44 6.59-5.82 1.26L913.25 853l-3.94.75c-.49 1.82-.9 3.32-1.64 6.08l13 7.5-12.78 1 11.69 7.89-24.39 5c.35 6.9.57 14.26 1.16 21.6.25 3.25-.06 5.5-3.93 5.7-4.15.21-4.29-2.37-4.12-5.45.33-5.77 0-11.61.88-17.3.74-5-3.27-5.89-5.72-6.56-5.36-1.46-11.07-1.62-18.43-2.54l12.23-7.7-10.88-1.65 11.73-8.09-5.92-7.61c12.08-2.55 5.78-16.14 14.73-21.87l-4.73-.64 9.66-34.55 2.93.08 9.08 34.11z"/>
    <path class="cls-6" d="M847.91 838.45l-16.85-1.3c1.05-7 4.59-10.4 11.62-9.71l-8.54-.92c1.42-4.55 2.13-9.15 8.29-9.23l-6.14-.9c3.11-6.37 6.09-12.46 9.15-18.7 1.82 4.27 3.66 8.61 5.58 13.11l-2.06.56c2.07 2.76 4.31 5.73 7 9.39l-5.65.66 9 8.6-.56 1.5-9 .8c7.81-.62 9.17 5 10.67 11.19l-11.34 1c6.54 1.23 13.81 1.33 14 11.44h-15.29c-.35 2.9-.62 5.16-1 8.25-5.47-.23-2.46-5.63-5.13-7.77h-15.77c4.59-7.9 12.28-3 17.7-6L828 849.14c1.05-12.88 11.58-8.34 19.91-10.69z"/>
  </g>
  <g id="Foreground">
    <path class="cls-9" d="M194.77 1024c50.12-76.51 174.74-130.7 320.53-130.7s270.41 54.19 320.53 130.7z"/>
    <path class="cls-10" d="M658.62 803.87l14.19 11.06-9.81 2.13 19.77 26.35-6.62 1.26c-.82 3.06-1.5 5.58-2.75 10.22l21.85 12.6-21.48 1.65 19.64 13.26-41 8.33c.58 11.59 1 24 1.94 36.3.43 5.46-.1 9.24-6.61 9.58-7 .37-7.2-4-6.91-9.15.54-9.7.06-19.53 1.47-29.08 1.24-8.41-5.5-9.9-9.61-11-9-2.46-18.61-2.73-31-4.27l20.55-13-18.24-2.74 19.71-13.61L613.8 841c20.3-4.29 9.7-27.13 24.76-36.76l-8-1.07c5.45-19.49 10.85-38.78 16.24-58.07l4.92.12c5.07 19.07 10.15 38.13 15.27 57.34z"/>
    <path class="cls-11" d="M607.34 779.87l14.19 11.06-9.78 2.13 19.77 26.35-6.62 1.27c-.83 3.05-1.51 5.57-2.76 10.21l21.86 12.6-21.47 1.66 19.64 13.25-41 8.33c.59 11.6 1 24 1.94 36.3.44 5.46-.1 9.25-6.61 9.59-7 .36-7.19-4-6.91-9.16.54-9.7.06-19.52 1.48-29.08 1.24-8.4-5.5-9.9-9.62-11-9-2.46-18.6-2.73-31-4.27l20.56-13-18.28-2.77 19.71-13.6-10-12.79c20.3-4.3 9.71-27.14 24.76-36.77l-8-1.06c5.46-19.49 10.85-38.79 16.25-58.08l4.91.13c5.08 19.06 10.16 38.12 15.27 57.33zM746.33 967.31c-6.43-.37-12.85-1-19.27-1-2.07 0-4.15 1.56-8.62 3.38-4.35-3.51-11.62-6-21.43-2.56-4.92 1.72-12.15-3.15-19.13-5.28l24.26-12c-5.15-6-9.87-10.44-13.12-15.73-3.14-5.11-6.38-11.05-6.73-16.79-1-16.25-4.71-20.32-20.95-20a42.92 42.92 0 01-17.35-3c4.09 0 8.18.09 12.26 0s8.38-.44 12.8-.69c-.16-1.88-.31-3.75-.48-5.64l13.81 10.82 3.78-14.08 1.41.19v17.22l2.12.38 4.86-16.51 1.48.21c-.27 2.74-.53 5.48-1 10.33 6.08-7.86 18.51-8.94 15.4-20.79-3-11.64-14.23-11.39-23.41-14.45l20.43 1.68c-1.07-7.79-2.34-17.07-3.61-26.34l2.18-.11c1.91 6.42 3.81 12.85 5.88 19.8l7.88-14.62 8.16 1.83c-10.6 4-12.17 7.3-12.43 27.25 8.56-9.14 17.79-11 28.57-5.07-1.16.42-1.78.88-2.34.81-17.93-2.23-19.72.28-22.88 18.11-1.18 6.62-8.67 12.14-13.33 18.12-3.52 4.52-10.2 9.13-10 13.42.37 7.15 3.94 15.12 11.7 16 4.93-8.11 9.21-15.74 14.16-22.92 1.4-2 4.61-3.26 7.22-3.92 8.83-2.24 17.29-4.59 17.51-16.36 1.93 11.33-3 17.9-12.92 18.86-7.31.71-14 2.53-9.86 12.51-9.93 10.38-2.93 21.63-2.11 32.74.43 5.9 2.77 7.46 7.72 8.3 5.88 1 11.67 2.57 17.5 3.89z"/>
    <path class="cls-10" d="M415.91 832.51l10.74 8.37-7.41 1.61 15 19.94-5 1c-.62 2.31-1.13 4.22-2.08 7.73l16.54 9.54-16.26 1.24 14.86 10-31 6.3c.44 8.77.73 18.14 1.47 27.47.33 4.13-.08 7-5 7.25-5.28.28-5.45-3-5.23-6.93.41-7.34 0-14.77 1.11-22 .94-6.36-4.16-7.49-7.27-8.34-6.81-1.87-14.08-2.07-23.44-3.24l15.55-9.8-13.83-2.09 14.91-10.29-7.57-9.68c15.36-3.25 7.34-20.53 18.73-27.82l-6-.81c4.13-14.75 8.21-29.34 12.29-43.94l3.72.09c3.84 14.43 7.69 28.85 11.56 43.39z"/>
    <path class="cls-11" d="M362.48 784.55c6.77 5.28 10.83 8.43 16.15 12.59l-11.13 2.42 22.5 30-7.53 1.44c-.94 3.48-1.72 6.34-3.14 11.62L404.2 857l-24.44 1.88 22.35 15.08-46.64 9.48c.66 13.19 1.09 27.28 2.21 41.31.49 6.21-.12 10.51-7.52 10.9-7.93.41-8.19-4.54-7.86-10.42.61-11 .06-22.22 1.67-33.09 1.41-9.56-6.26-11.26-10.94-12.54-10.24-2.8-21.17-3.11-35.25-4.86L321.17 860l-20.8-3.15 22.43-15.47-11.32-14.56c23.1-4.88 11-30.87 28.17-41.83l-9-1.21 18.48-66.09 5.59.14L372.05 783z"/>
    <path class="cls-10" d="M800.8 882l-10.4 1.41c4.43 11.41 8.7 22.4 13 33.61l-8.24 2.77c2.79 9.21 5.47 18 8.44 27.86l-23.46 1.71v57.7h-15.55c1-18.9 2-37.43 3.14-57.48l-25.9-2.06c2-5.28 4.35-9.66 5.23-14.32 1-5.34 11-11.73-1.09-16.53-.43-.17.55-4.81 1.4-7.18 3-8.36 6.27-16.63 9.84-26l-10.11-1.62c4-10.12 7.64-19.55 11.58-29.61l-8.32-2.33c4.28-8.91 8.49-17.64 12.8-26.59l-6.06-2.28c3.46-13.57 6.56-26.45 10.13-39.21.91-3.23 3.3-6.06 5.75-10.36l14.29 24.11-7.59 2.18 12 22.86-7.78 2.83c4.31 8.64 8.45 16.93 13.06 26.15l-9.24 2.31c4.28 9.93 8.47 19.54 13.08 30.07z"/>
    <path class="cls-9" d="M293.6 809.49c12.33 14.58 11.12 31.33 7.38 49.79l23.74-2.37-12.14 4.55c5.55 9.26 6.64 9.4 19.48 2.83-1 8.15 4 11.31 17.64 9.86-2.77 1.56-4.31 3.18-5.38 2.91-11.31-2.86-23.39-4.4-33.53-9.65-7.38-3.82-11.54-3-16.51 1.79-5.39 5.19-4.72 10.86.14 15.75s10.53 9.27 15.12 13.24l27.23-11.85.81 1.12-5 4.12 4.55-4.05 11.42 20.83-.78 1.36c-2.17-1.78-4.13-4-6.55-5.28-4.95-2.71-10.52-7.37-15.11-6.64-3.69.59-6.21 8-9.44 12.23-4.21 5.53-7.89 11.78-13.13 16.11-5.86 4.85-16 4.83-16.95 15.12-.92 10 5.07 20.94 14.88 27.06h-40.85c10.4-7.65 9.86-7.65 10.09-22.53.09-6.39 1.55-13.63 4.89-18.89 4.68-7.37.49-9.55-4.63-9.75-6.48-.25-13 1.68-19.57 2.69L231.26 923l-.46-3.65 19.54-2.56 1.81-2.47-6.37-2.32h35.72l3.88 7.47a9.2 9.2 0 002.54-.29c18-9.15 18-11 2.69-23.87-5.19-4.37-9-10.34-14-16.18l-8.35 3.74-1.1-1.52 22.05-20.28-1.65-2.74-23 4.64c-.2-.93-.41-1.86-.61-2.79 8.82-2.63 18.3-4.06 26.15-8.43 3.88-2.16 5.86-9.58 6.65-14.93.85-5.75-3.11-8.69-9.37-8.13-2.07.19-4.29-1.21-6.21-3h11q.7-8.39 1.43-16.2z"/>
    <path class="cls-11" d="M814.6 888.9c9.84 11.64 8.87 25 5.89 39.74l18.94-1.89-9.68 3.63c4.43 7.39 5.3 7.5 15.54 2.26-.81 6.5 3.16 9 14.08 7.87-2.21 1.24-3.44 2.53-4.29 2.32-9-2.28-18.67-3.51-26.76-7.7-5.89-3-9.21-2.4-13.18 1.43-4.3 4.14-3.77 8.66.12 12.57s8.4 7.39 12.06 10.56l21.73-9.45c.22.29.43.59.65.89l-4 3.29 3.63-3.24 9.11 16.63-.62 1.09c-1.73-1.43-3.3-3.16-5.23-4.22-4-2.16-8.39-5.88-12.05-5.3-2.95.47-5 6.38-7.54 9.76-3.36 4.41-6.3 9.4-10.48 12.86-4.68 3.87-12.77 3.85-13.52 12.06-.74 8 4 16.71 11.87 21.6h-32.59c8.3-6.1 7.87-6.11 8.05-18 .08-5.1 1.24-10.88 3.91-15.07 3.73-5.89.39-7.63-3.7-7.78-5.17-.2-10.41 1.34-15.61 2.14l-16.08 2.53-.36-2.91 15.58-2.05 1.45-2-5.08-1.87h28.5c.83 1.59 2 3.84 3.11 5.95a6.86 6.86 0 002-.23c14.38-7.29 14.39-8.76 2.15-19-4.15-3.48-7.22-8.24-11.2-12.9l-6.66 3-.89-1.21 17.6-16.19-1.31-2.19-18.39 3.71-.48-2.23c7-2.1 14.61-3.24 20.87-6.73 3.1-1.72 4.68-7.64 5.31-11.91.68-4.59-2.48-6.93-7.48-6.49-1.66.15-3.42-1-5-2.42h8.77c.47-4.45.87-8.74 1.26-12.91z"/>
    <path class="cls-9" d="M526.5 918.34c-9.64-.55-19.28-1.45-28.92-1.46-3.11 0-6.23 2.34-12.94 5.08-6.54-5.27-17.45-9-32.18-3.86-7.39 2.59-18.23-4.72-28.71-7.92l36.41-17.94c-7.72-9.07-14.81-15.66-19.69-23.62-4.71-7.66-9.58-16.58-10.1-25.2-1.49-24.4-7.07-30.5-31.45-30.07a64.42 64.42 0 01-26-4.45c6.13 0 12.27.13 18.4 0 6.29-.18 12.58-.66 19.22-1-.24-2.82-.48-5.63-.72-8.47l20.73 16.24 5.67-21.13 2.12.28v25.78l3.18.58q3.66-12.39 7.3-24.79l2.21.31c-.4 4.11-.79 8.22-1.5 15.5 9.14-11.79 27.79-13.42 23.12-31.2-4.58-17.47-21.36-17.1-35.14-21.7l30.66 2.48c-1.6-11.69-3.5-25.62-5.41-39.55l3.28-.16c2.86 9.65 5.72 19.29 8.81 29.73q5.78-10.69 11.84-21.94l12.24 2.74c-15.91 5.95-18.26 11-18.66 40.9 12.85-13.72 26.71-16.55 42.89-7.61-1.73.63-2.67 1.32-3.5 1.22-26.92-3.35-29.6.42-34.35 27.19-1.77 9.94-13 18.22-20 27.2-5.28 6.78-15.3 13.71-15 20.15.56 10.74 5.93 22.7 17.57 24.07 7.4-12.18 13.83-23.64 21.26-34.41 2.1-3 6.92-4.9 10.85-5.89 13.24-3.37 25.95-6.89 26.28-24.57 2.89 17-4.5 26.88-19.41 28.33-11 1.06-20.94 3.8-14.79 18.77-14.91 15.59-4.39 32.48-3.17 49.16.65 8.86 4.16 11.2 11.59 12.46 8.83 1.49 17.52 3.85 26.27 5.84-.11.98-.18 1.95-.26 2.93z"/>
    <path class="cls-11" d="M245 909.17l-67.85-5.26c4.22-28.17 18.51-41.85 46.77-39.07l-34.37-3.7c5.75-18.34 8.61-36.83 33.45-37.14l-24.73-3.65 36.84-75.27c7.33 17.21 14.75 34.67 22.46 52.79l-8.28 2.25c8.34 11.12 17.33 23.08 28.39 37.81l-22.76 2.65 36.27 34.62-2.25 6-36.08 3.26c31.43-2.52 36.91 19.91 43 45l-45.66 3.86c26.32 4.92 55.61 5.34 56.19 46h-61.8c-1.39 11.65-2.48 20.74-4 33.19-22-.91-9.91-22.67-20.67-31.27h-63.55c18.46-31.81 49.42-12.06 71.26-24.32l-62.73-4.82c4.21-51.77 46.56-33.47 80.1-42.93z"/>
  </g>
  <g id="LaunchPad">
    <path class="cls-12" d="M630.55 991.72H395.7l58.23-58.23h118.4l58.22 58.23z"/>
    <path class="cls-13" d="M395.7 991.72v13.14h234.85v-13.14"/>
  </g>
  <path d="M940.72 82.39a65.83 65.83 0 01-62.92 86.08 65.8 65.8 0 00-38.55-118.83 65.82 65.82 0 01101.47 32.75z" fill="#f4da98" id="Moon"/>
  <g id="Clouds2">
    <path class="cls-15" d="M248.28 155.39l-6.3-.26h-1.28a60.88 60.88 0 00-56.41 37.68l-1.93 4.66-3.67-3.47a47.86 47.86 0 00-33-13.12h-3.47v-3.48a55.13 55.13 0 01102.94-27.47z"/>
    <path class="cls-16" d="M122.53 271.56l-3.31 3A37.76 37.76 0 1194 208.65c1 0 2.06 0 3.09.12l4.46.38-1.46 4.22a48.19 48.19 0 0018.73 55.7z"/>
    <path class="cls-17" d="M308.73 216.16v3.48h-3.47a28.8 28.8 0 00-23 46.1l2.09 2.78-2.78 2.08a68 68 0 01-108.22-45.36 64.81 64.81 0 01-.62-9.08 68 68 0 0168-68h1.59a68 68 0 0166.44 68z"/>
    <path class="cls-18" d="M357.14 264.57a19.61 19.61 0 01-35.29 11.78l-2.1-2.77 2.78-2.1a28.6 28.6 0 0011.53-23V245h3.47a19.63 19.63 0 0119.61 19.57z"/>
    <path class="cls-19" d="M194.05 255.64l-1.25 2a55.15 55.15 0 11-9.33-68.64l1.74 1.63-.92 2.21a61.07 61.07 0 008.28 60.94z"/>
    <path class="cls-20" d="M341 248.44a35.75 35.75 0 11-35.75-35.75A35.49 35.49 0 01341 248.44z"/>
    <path class="cls-21" d="M243.12 235a49.22 49.22 0 11-49.21-49.22A48.83 48.83 0 01243.12 235z"/>
    <path class="cls-15" d="M511.15 107.6l-4.29-.18H506a41.43 41.43 0 00-38.4 25.66l-1.32 3.17-2.5-2.36A32.57 32.57 0 00441.3 125h-2.37v-2.36A37.53 37.53 0 01509 103.89z"/>
    <path class="cls-16" d="M425.54 186.7l-2.26 2a25.71 25.71 0 11-17.16-44.86c.71 0 1.4 0 2.1.09l3 .25-1 2.88a32.39 32.39 0 00-1.78 10.68A32.81 32.81 0 00423 185z"/>
    <path class="cls-17" d="M552.31 149v2.37h-2.37a19.6 19.6 0 00-15.67 31.39l1.42 1.89-1.89 1.42a46.32 46.32 0 01-73.69-30.89 45.07 45.07 0 01-.41-6.18 46.24 46.24 0 0146.3-46.32h1.08A46.31 46.31 0 01552.31 149z"/>
    <path class="cls-18" d="M585.27 181.94a13.35 13.35 0 01-24 8l-1.43-1.89 1.89-1.43a19.44 19.44 0 007.82-15.62v-2.37h2.37a13.37 13.37 0 0113.35 13.31z"/>
    <path class="cls-19" d="M474.23 175.86l-.86 1.39a37.55 37.55 0 11-6.34-46.8l1.18 1.12-.62 1.5a41.17 41.17 0 00-3.16 15.93 42.41 42.41 0 00.36 5.55 41.5 41.5 0 008.43 20z"/>
    <path class="cls-20" d="M574.28 171a24.34 24.34 0 11-24.34-24.34A24.15 24.15 0 01574.28 171z"/>
    <path class="cls-21" d="M507.64 161.79a33.51 33.51 0 11-33.51-33.51 33.24 33.24 0 0133.51 33.51z"/>
  </g>
  <g id="Clouds1">
    <path class="cls-15" d="M891.59 292.71l-4.53-.19h-.92a43.8 43.8 0 00-40.6 27.12l-1.39 3.36-2.64-2.49a34.44 34.44 0 00-23.76-9.44h-2.5v-2.5a39.68 39.68 0 0174.09-19.77z"/>
    <path class="cls-16" d="M801.09 376.32l-2.38 2.14A27.18 27.18 0 11780.57 331c.75 0 1.48 0 2.22.09l3.21.27-1 3a34.72 34.72 0 0013.48 40.09z"/>
    <path class="cls-17" d="M935.1 336.45V339h-2.5a20.73 20.73 0 00-16.6 33.13l1.5 2-2 1.5A49 49 0 01837.64 343a46.91 46.91 0 01-.44-6.53 48.91 48.91 0 0148.94-48.94h1.14a48.94 48.94 0 0147.82 48.93z"/>
    <path class="cls-18" d="M969.94 371.29a14.11 14.11 0 01-25.4 8.48l-1.51-2 2-1.51a20.57 20.57 0 008.3-16.58v-2.5h2.5a14.13 14.13 0 0114.11 14.11z"/>
    <path class="cls-19" d="M852.56 364.86l-.9 1.47a39.69 39.69 0 11-6.66-49.47l1.2 1.14-.66 1.59a44 44 0 006 43.86z"/>
    <path class="cls-20" d="M958.33 359.68A25.73 25.73 0 11932.6 334a25.53 25.53 0 0125.73 25.68z"/>
    <path class="cls-21" d="M887.88 350a35.42 35.42 0 11-35.42-35.42A35.15 35.15 0 01887.88 350z"/>
    <path class="cls-15" d="M598.44 322.29l-3.08-.13h-.63a29.82 29.82 0 00-27.64 18.46l-1 2.28-1.79-1.69a23.45 23.45 0 00-16.18-6.43h-1.7v-1.7a27 27 0 0150.44-13.46z"/>
    <path class="cls-16" d="M536.83 379.22l-1.62 1.46a18.51 18.51 0 11-12.35-32.29c.51 0 1 0 1.51.06l2.18.18-.71 2.07A23.64 23.64 0 00535 378z"/>
    <path class="cls-17" d="M628.07 352.07v1.7h-1.7a14.12 14.12 0 00-11.29 22.6l1 1.36-1.37 1a33.34 33.34 0 01-53-22.23 32.61 32.61 0 01-.3-4.45 33.32 33.32 0 0133.32-33.32h.78a33.32 33.32 0 0132.56 33.31z"/>
    <path class="cls-18" d="M651.79 375.79a9.61 9.61 0 01-17.29 5.78l-1-1.36 1.36-1a14 14 0 005.65-11.29v-1.7h1.7a9.62 9.62 0 019.58 9.57z"/>
    <path class="cls-19" d="M571.87 371.42l-.61 1a27 27 0 11-4.57-33.69l.85.81-.45 1.08a29.64 29.64 0 00-2.27 11.45 30.85 30.85 0 00.26 4 29.83 29.83 0 006.07 14.42z"/>
    <path class="cls-20" d="M643.88 367.89a17.52 17.52 0 11-17.51-17.52 17.39 17.39 0 0117.51 17.52z"/>
    <path class="cls-21" d="M595.92 361.29a24.12 24.12 0 11-24.12-24.11 23.93 23.93 0 0124.12 24.11z"/>
  </g>
  <g id="Rocket">
    <path class="cls-22" d="M510.94 718.21v31.06l-4.34 3.36.28-2.22 4.06-32.2z"/>
    <path class="cls-23" d="M515.3 752.63l-4.34-3.36h-.01v-31.06l3.92 31 .15 1.2.28 2.22z"/>
    <path class="cls-23" d="M538.25 790.68v12.11a4.66 4.66 0 00-1.72-.33h-2.65v-11.78c0-19.38-8-35.66-18.86-40.27a16.72 16.72 0 00-4.06-1.14 15.76 15.76 0 012.18-.16 16.91 16.91 0 011.74.1c13.05 1.48 23.37 19.48 23.37 41.47zM538.25 811.36v11a4.47 4.47 0 00-1.72-.33h-2.65v-10.34h2.65a4.47 4.47 0 001.72-.33zM538.25 830.92v2.77a76.28 76.28 0 01-4.37 7.16v-9.6h2.65a4.66 4.66 0 001.72-.33z"/>
    <path d="M510.94 860.5v57.61c-.83-.07-1.65-.19-2.46-.34A25.07 25.07 0 01488 893.08v-28.35s10.46 1.39 22.94-4.23z" fill="#302f2f"/>
    <path class="cls-25" d="M538.25 833.69v59.39a25.14 25.14 0 01-14.94 23l-.53.22a24.18 24.18 0 01-5 1.47 25 25 0 01-3.59.41h-1.06q-1.11 0-2.19-.09l.6-.06h.77l.57-.09.24-.07a6.49 6.49 0 00.74-.26 8.24 8.24 0 001.75-1l.59-.47c8-6.93 8.39-29 8.39-29v-35.5a62.16 62.16 0 009.28-10.67 76.28 76.28 0 004.38-7.28z"/>
    <path class="cls-22" d="M506.6 768.34v7.54a6.53 6.53 0 004.34 6.16v78.46c-12.48 5.62-22.94 4.23-22.94 4.23v-74.05c0-19.38 8-35.67 18.88-40.27a16.17 16.17 0 014.06-1.14v12.91a6.54 6.54 0 00-4.34 6.16z"/>
    <path class="cls-13" d="M524.6 784.39v67.13a52.28 52.28 0 01-13.66 9V782a6.61 6.61 0 002.18.37 6.52 6.52 0 006.52-6.53v-7.54a6.52 6.52 0 00-6.52-6.53 6.61 6.61 0 00-2.18.37v-12.87s13.66 12.31 13.66 35.12z"/>
    <path class="cls-12" d="M519.65 768.34v7.54a6.52 6.52 0 01-6.52 6.53 6.61 6.61 0 01-2.18-.37v-19.86a6.61 6.61 0 012.18-.37 6.52 6.52 0 016.52 6.53z"/>
    <path class="cls-12" d="M533.88 790.68v11.78h-9.28v-18.07c0-22.81-13.66-35.12-13.66-35.12a16.72 16.72 0 014.06 1.14c10.86 4.59 18.88 20.89 18.88 40.27zM533.88 811.69V822h-9.28v-10.31h9.28zM533.88 831.24v9.61a62.16 62.16 0 01-9.28 10.67v-20.27h9.28z"/>
    <path d="M510.94 762.18V782a6.53 6.53 0 01-4.34-6.16v-7.54a6.54 6.54 0 014.34-6.12z" fill="#559aad"/>
    <path d="M519.65 768.34v7.54a6.52 6.52 0 01-6.52 6.53 6.61 6.61 0 01-2.18-.37v-19.86a6.61 6.61 0 012.18-.37 6.52 6.52 0 016.52 6.53z" fill="#6ca7bc"/>
    <path class="cls-25" d="M585.68 910.51h-40.95s-6.48.15-6.48-17.43v-59.39s13.51 37.73 28.82 50.35 18.61 26.47 18.61 26.47z"/>
    <path class="cls-22" d="M488 833.69v59.39c0 17.58-6.48 17.43-6.48 17.43h-40.95s3.31-13.86 18.62-26.47S488 833.69 488 833.69z"/>
    <path d="M524.6 851.52V887s-.54 27.93-11.71 30.84l-.57.09h-.77l-.6.06V860.5a52.28 52.28 0 0013.65-8.98z" fill="#3a3a3a"/>
    <path class="cls-29" d="M512.88 917.86a7.7 7.7 0 01-1.94.25"/>
    <path class="cls-30" d="M536.53 831.25h1.72v-.33a4.66 4.66 0 01-1.72.33zm0-9.23a4.47 4.47 0 011.72.33V822zm-2.9 9.23zm0-9.23z"/>
    <path d="M533.63 811.69zm0-9.23zm4.45 0zm-1.55 9.23h1.72v-.33a4.47 4.47 0 01-1.72.33z" fill="#545454"/>
    <path class="cls-29" d="M536.53 811.69h1.72v-.33a4.47 4.47 0 01-1.72.33zm-2.9 0zm0-9.23zM533.63 802.46zm0 9.23zM533.88 831.24zM538.25 830.92v.33h-1.72a4.66 4.66 0 001.72-.33zM533.88 831.24z"/>
    <path class="cls-32" d="M543.52 807.08a4.61 4.61 0 01-4.62 4.61h-.65a4.61 4.61 0 004.44-4.61 4.61 4.61 0 00-4.44-4.62h.65a4.62 4.62 0 014.62 4.62z"/>
    <path class="cls-30" d="M542.69 807.07a4.61 4.61 0 01-4.44 4.62v-.33a4.5 4.5 0 001.55-1 4.62 4.62 0 00-1.55-7.55 4.47 4.47 0 00-1.72-.33h1.72a4.61 4.61 0 014.44 4.59z"/>
    <path class="cls-33" d="M541.15 807.07a4.64 4.64 0 01-1.35 3.27 4.5 4.5 0 01-1.55 1 4.66 4.66 0 01-1.72.33h-2.65a4.62 4.62 0 000-9.23h2.65a4.47 4.47 0 011.72.33 4.61 4.61 0 012.9 4.3z"/>
    <path class="cls-34" d="M538.25 807.08a4.62 4.62 0 01-4.37 4.61h-47a4.62 4.62 0 110-9.23h47a4.61 4.61 0 014.37 4.62z"/>
    <path d="M488 811.69h50.25v2.43H488z"/>
    <path class="cls-32" d="M543.52 826.63a4.61 4.61 0 01-4.62 4.62h-.65a4.62 4.62 0 000-9.23h.65a4.61 4.61 0 014.62 4.61z"/>
    <path class="cls-33" d="M541.15 826.63a4.64 4.64 0 01-1.35 3.27 4.5 4.5 0 01-1.55 1 4.66 4.66 0 01-1.72.33h-2.65a4.62 4.62 0 000-9.22h2.65a4.47 4.47 0 011.72.33 4.61 4.61 0 012.9 4.29z"/>
    <path class="cls-34" d="M538.25 826.63a4.59 4.59 0 01-1.35 3.27 4.65 4.65 0 01-3 1.35h-47a4.62 4.62 0 110-9.23h47a4.61 4.61 0 014.35 4.61z"/>
    <path class="cls-30" d="M542.69 826.63a4.61 4.61 0 01-4.44 4.62h-1.72a4.66 4.66 0 001.72-.33 4.5 4.5 0 001.55-1 4.62 4.62 0 00-1.55-7.55 4.47 4.47 0 00-1.72-.33h1.72a4.61 4.61 0 014.44 4.59z"/>
    <path d="M488 831.25h50.25v2.43H488z"/>
    <path d="M513.13 916.06v39.29H500a5.49 5.49 0 01-5.44-6.17 40.33 40.33 0 015.37-16.18c.29-.45.58-.89.87-1.31s.59-.82.9-1.2a5.79 5.79 0 001.12-2.36c.1-.49.22-1 .35-1.44a20.71 20.71 0 012.49-5.71c.23-.36.47-.69.72-1a11.86 11.86 0 012.1-2.14 8.16 8.16 0 012.46-1.35 6.79 6.79 0 012.19-.43z" fill="#1e1e1e"/>
    <path class="cls-22" d="M526.22 955.35h-1.65c1-8.15-3.28-16.75-5.47-22.4-.18-.45-.34-.9-.49-1.31a14.37 14.37 0 01-.68-2.57 16.87 16.87 0 00-.49-2.43 42.36 42.36 0 00-2-5.71c-.14-.35-.29-.69-.44-1-.28-.63-.55-1.22-.79-1.73-.12-.23-.22-.45-.32-.65-.45-.92-.74-1.47-.74-1.47a6.88 6.88 0 012.49.47 8.55 8.55 0 012.16 1.24 12.19 12.19 0 012.1 2.14 12.34 12.34 0 01.71 1 20.13 20.13 0 012.49 5.71c.14.47.25 1 .36 1.44a5.66 5.66 0 001.12 2.36c.25.32.51.66.75 1l.14.19c.3.42.59.86.87 1.31a40.33 40.33 0 015.34 16.23 5.49 5.49 0 01-5.46 6.18z"/>
    <path d="M524.57 955.35h-11.44v-39.29s.29.55.74 1.47c.1.2.2.42.32.65.24.51.51 1.1.79 1.73.15.33.3.67.44 1a42.36 42.36 0 012 5.71 16.87 16.87 0 01.49 2.43 14.37 14.37 0 00.68 2.57c.15.41.31.86.49 1.31 2.21 5.67 6.54 14.27 5.49 22.42z" fill="#2b2b2b"/>
    <path class="cls-32" d="M525.93 918a1.93 1.93 0 01-1.93 1.92h-.28a1.93 1.93 0 000-3.85h.28a1.93 1.93 0 011.93 1.93z"/>
    <path class="cls-30" d="M525.58 918a1.91 1.91 0 01-1.86 1.92v-.13a1.94 1.94 0 00.65-.43 1.63 1.63 0 00.33-.45 1.87 1.87 0 00.24-.91 1.91 1.91 0 00-.52-1.31l-.1-.1a1.86 1.86 0 00-.6-.38.52.52 0 00-.16-.06l-.3-.06a1.06 1.06 0 00-.25 0h.71a1.93 1.93 0 011.86 1.91z"/>
    <path class="cls-33" d="M524.94 918a2 2 0 01-.57 1.36 1.94 1.94 0 01-.65.43 2.08 2.08 0 01-.71.13h-1.11a1.88 1.88 0 001.26-.56 1.93 1.93 0 00-.43-3.05 2 2 0 00-.83-.24h1.1a1.06 1.06 0 01.25 0l.3.06.16.05a1.73 1.73 0 01.6.39l.1.1a1.91 1.91 0 01.53 1.33z"/>
    <path class="cls-34" d="M523.72 918a1.91 1.91 0 01-.56 1.36 1.88 1.88 0 01-1.26.56h-19.64a1.93 1.93 0 110-3.85h19.64a2 2 0 01.83.24 1.93 1.93 0 01.99 1.69z"/>
    <path d="M520.59 920.93h-14.93c.23-.36.47-.69.72-1h13.5a12.34 12.34 0 01.71 1z"/>
    <path class="cls-32" d="M529.71 929.14a2.49 2.49 0 01-2.5 2.5h-.35a2.5 2.5 0 001.67-.72 2.56 2.56 0 00.3-.37 2.86 2.86 0 00.24-.42 2.62 2.62 0 00.19-1 2.49 2.49 0 00-1-2 2.46 2.46 0 00-1.35-.46h.35a2.5 2.5 0 012.45 2.47z"/>
    <path class="cls-33" d="M528.43 929.14a2.45 2.45 0 01-.74 1.76 2.48 2.48 0 01-.83.56 2.61 2.61 0 01-.93.18h-1.44a1.54 1.54 0 00.43-.06h.22l.17-.06.18-.09h.07l.18-.11.18-.13a1.21 1.21 0 00.16-.16 2.45 2.45 0 00.74-1.76 2.5 2.5 0 00-2.37-2.5h1.44a2.41 2.41 0 01.93.18 2.5 2.5 0 011.61 2.19z"/>
    <path class="cls-34" d="M526.86 929.14a2.45 2.45 0 01-.74 1.76 1.21 1.21 0 01-.16.16l-.18.13-.18.11h-.07l-.18.09-.17.06h-.22a1.54 1.54 0 01-.43.06h-25.48a2.5 2.5 0 01-2.5-2.5 2.46 2.46 0 01.73-1.77 2.5 2.5 0 011.77-.73h25.44a2.5 2.5 0 012.37 2.63z"/>
    <path class="cls-30" d="M529.26 929.14a2.62 2.62 0 01-.19 1 2.86 2.86 0 01-.24.42 2.57 2.57 0 01-1.05.88 2.42 2.42 0 01-.92.21h-.93a2.61 2.61 0 00.93-.18 2.48 2.48 0 00.83-.56 2.45 2.45 0 00.74-1.76 2.5 2.5 0 00-1.57-2.32 2.41 2.41 0 00-.93-.18h.93a2.46 2.46 0 011.35.46 3.27 3.27 0 01.35.3 2.51 2.51 0 01.7 1.73z"/>
    <path d="M526.32 933h-26.39c.29-.45.58-.89.87-1.31h24.65c.3.37.55.81.87 1.31z"/>
    <path class="cls-17" d="M585.68 910.51h-40.95s-6.48.15-6.48-17.43a25.14 25.14 0 01-14.94 23h.69a1.92 1.92 0 011.36 3.29 1.91 1.91 0 01-1.36.56h-.28v-.13a2.08 2.08 0 01-.71.13h-3.13a12.34 12.34 0 01.71 1 20.13 20.13 0 012.49 5.71h4.13a2.5 2.5 0 110 5h-1.76c.3.42.59.86.87 1.31a40.33 40.33 0 015.34 16.23 5.49 5.49 0 01-5.44 6.17H500a5.49 5.49 0 01-5.44-6.17 40.33 40.33 0 015.37-16.18c.29-.45.58-.89.87-1.31h-1.75a2.5 2.5 0 01-2.5-2.5 2.46 2.46 0 01.73-1.77 2.5 2.5 0 011.77-.73h4.12a20.71 20.71 0 012.49-5.71c.23-.36.47-.69.72-1h-4.12a1.93 1.93 0 110-3.85h.74a25.15 25.15 0 01-14.95-23c0 17.58-6.48 17.43-6.48 17.43h-41s3.31-13.86 18.62-26.47 28.81-50.4 28.81-50.4v-2.44h-1.15a4.62 4.62 0 110-9.23H488v-10.33h-1.15a4.62 4.62 0 110-9.23H488v-11.78c0-19.38 8-35.67 18.88-40.27l4.06-32.2v31.06-31.06l3.92 31c13.06 1.48 23.38 19.48 23.38 41.47v11.78h.65a4.62 4.62 0 110 9.23h-.65V822h.65a4.62 4.62 0 110 9.23h-.65v2.44s13.51 37.73 28.82 50.35 18.62 26.49 18.62 26.49z" opacity=".15"/>
  </g>
  <circle class="cls-22" cx="486.08" cy="967.71" r="13.78" id="Smoke1"/>
  <circle class="cls-22" cx="542.03" cy="971.58" r="13.78" id="Smoke2"/>
  <circle cx="510.91" cy="966.13" r="21.25" fill="#b3b3b3" id="Smoke3"/>
  <circle class="cls-34" cx="525.99" cy="955.08" r="16.5" id="Smoke4"/>
</svg>
